# This file uses centimeters as units for non-parametric coordinates.

mtllib MOD_ROCA_V02.mtl
g default
v 25.693854 -5.397113 7.107167
v 24.984667 -5.438829 7.082841
v 24.641111 -5.412008 7.709178
v 24.962044 -5.506023 8.374699
v 25.665406 -5.312620 8.261915
v 25.962118 -5.279336 7.709178
v 25.905156 -4.874267 6.741182
v 24.752889 -4.910741 6.681391
v 24.251995 -4.861875 7.709178
v 24.733651 -4.931067 8.770285
v 26.064459 -5.042582 8.953092
v 26.774638 -5.038357 7.709178
v 26.089176 -4.241288 6.422450
v 24.443012 -4.241288 6.885870
v 23.735427 -4.241288 7.709178
v 24.431156 -4.241288 9.294222
v 26.235747 -4.241288 9.249777
v 26.821143 -4.241288 7.709178
v 24.834694 -3.658267 6.823081
v 24.288942 -3.368330 7.709178
v 24.550237 -3.357717 9.087969
v 25.967186 -3.542768 8.784613
v 26.877562 -3.389844 7.709178
v 25.727602 -2.985225 7.048714
v 25.044571 -3.221670 7.186597
v 24.731807 -3.205257 7.709178
v 25.006141 -3.107530 8.298319
v 25.756219 -2.900230 8.419207
v 26.249449 -2.776533 7.709178
v 25.346283 -5.485057 7.709178
v 25.346283 -2.753143 7.709178
v 26.241271 -3.521117 7.037483
v 26.559817 -4.241288 7.249792
v 26.418137 -4.241288 7.000732
v 26.035088 -4.023930 6.516132
v 25.652306 -3.604229 6.734495
v 25.820412 -3.266118 6.887963
v 26.461873 -3.888695 7.299656
v 26.442973 -4.094549 7.171824
v 26.585126 -4.415727 7.460489
v 26.057751 -3.991110 6.545209
v 25.705002 -3.618317 6.731869
v 25.961383 -3.601137 6.708026
v 26.250787 -3.545037 7.009526
v 26.449250 -3.873279 7.242198
v 26.432595 -4.054689 7.129546
v 26.535399 -4.195918 7.199693
v 26.410544 -4.195918 6.980207
v 25.864482 -3.317390 6.871987
v 26.557538 -4.361559 7.386807
v 24.367246 -3.365149 8.122369
v 24.501546 -3.359695 8.831036
v 24.800127 -3.220585 8.655147
v 24.193068 -4.098272 8.545204
v 24.252807 -3.926403 8.433028
v 24.182852 -3.867567 8.188657
v 24.036984 -3.961327 7.991779
v 24.609831 -3.257071 8.047636
v 24.451211 -3.310215 7.854766
v 24.739833 -3.251268 8.617606
v 24.573650 -3.283131 8.087078
v 24.435130 -3.329541 7.918647
v 24.355279 -3.384809 8.154301
v 24.472562 -3.380045 8.773169
v 24.060343 -3.912735 8.042220
v 24.187726 -3.830856 8.214150
v 24.248817 -3.882237 8.427555
v 24.196648 -4.032327 8.525517
vt 0.000000 0.166667
vt 0.166667 0.166667
vt 0.333333 0.166667
vt 0.500000 0.166667
vt 0.666667 0.166667
vt 0.833333 0.166667
vt 1.000000 0.166667
vt 0.000000 0.333333
vt 0.166667 0.333333
vt 0.333333 0.333333
vt 0.500000 0.333333
vt 0.666667 0.333333
vt 0.833333 0.333333
vt 1.000000 0.333333
vt 0.000000 0.500000
vt 0.166667 0.500000
vt 0.333333 0.500000
vt 0.500000 0.500000
vt 0.666667 0.500000
vt 0.833333 0.500000
vt 1.000000 0.500000
vt 0.000000 0.666667
vt 0.166667 0.666667
vt 0.333333 0.666667
vt 0.500000 0.666667
vt 0.666667 0.666667
vt 0.833333 0.666667
vt 1.000000 0.666667
vt 0.000000 0.833333
vt 0.166667 0.833333
vt 0.333333 0.833333
vt 0.500000 0.833333
vt 0.666667 0.833333
vt 0.833333 0.833333
vt 1.000000 0.833333
vt 0.083333 0.000000
vt 0.250000 0.000000
vt 0.416667 0.000000
vt 0.583333 0.000000
vt 0.750000 0.000000
vt 0.916667 0.000000
vt 0.083333 1.000000
vt 0.250000 1.000000
vt 0.416667 1.000000
vt 0.583333 1.000000
vt 0.750000 1.000000
vt 0.916667 1.000000
vt 0.944797 0.666667
vt 0.892836 0.500000
vt 0.925097 0.500000
vt 1.000000 0.555294
vt 0.000000 0.555294
vt 0.041816 0.666667
vt 1.000000 0.755425
vt 0.000000 0.755425
vt 0.900103 0.582939
vt 0.909830 0.535422
vt 0.870230 0.462749
vt 0.000000 0.555294
vt 0.041816 0.666667
vt 0.944797 0.666667
vt 0.900103 0.582939
vt 0.909830 0.535422
vt 0.892836 0.500000
vt 0.925097 0.500000
vt 1.000000 0.555294
vt 0.000000 0.755425
vt 1.000000 0.755425
vt 0.870230 0.462749
vt 0.383279 0.666667
vt 0.468942 0.666667
vt 0.500000 0.758020
vt 0.421241 0.527305
vt 0.409446 0.560118
vt 0.383750 0.571352
vt 0.363049 0.553451
vt 0.395728 0.750396
vt 0.350883 0.718280
vt 0.500000 0.758020
vt 0.395728 0.750396
vt 0.350883 0.718280
vt 0.383279 0.666667
vt 0.468942 0.666667
vt 0.363049 0.553451
vt 0.383750 0.571352
vt 0.409446 0.560118
vt 0.421241 0.527305
vn 0.061145 -0.587858 -0.806650
vn 0.061145 -0.587858 -0.806650
vn 0.061145 -0.587858 -0.806650
vn 0.061145 -0.587858 -0.806650
vn -0.746647 -0.562298 -0.355443
vn -0.746647 -0.562298 -0.355444
vn -0.746647 -0.562298 -0.355444
vn -0.746647 -0.562298 -0.355443
vn -0.782067 -0.539140 0.312567
vn -0.782067 -0.539140 0.312567
vn -0.782067 -0.539140 0.312567
vn -0.782067 -0.539140 0.312567
vn 0.010718 -0.790216 0.612735
vn 0.010718 -0.790216 0.612735
vn 0.010718 -0.790216 0.612735
vn 0.010718 -0.790216 0.612735
vn 0.308509 -0.938788 0.153298
vn 0.308509 -0.938788 0.153298
vn 0.308509 -0.938788 0.153298
vn 0.308509 -0.938788 0.153298
vn 0.469780 -0.804173 -0.364160
vn 0.469780 -0.804173 -0.364160
vn 0.469780 -0.804173 -0.364160
vn 0.469780 -0.804173 -0.364160
vn -0.140764 -0.100008 -0.984979
vn -0.140764 -0.100008 -0.984979
vn -0.140764 -0.100008 -0.984979
vn -0.140764 -0.100008 -0.984979
vn -0.767240 -0.413858 -0.489964
vn -0.767240 -0.413858 -0.489964
vn -0.767240 -0.413858 -0.489964
vn -0.767240 -0.413858 -0.489964
vn -0.743007 -0.590439 0.315156
vn -0.743007 -0.590439 0.315156
vn -0.743007 -0.590439 0.315156
vn -0.743007 -0.590439 0.315156
vn -0.055765 -0.485170 0.872640
vn -0.055765 -0.485170 0.872640
vn -0.055765 -0.485170 0.872640
vn -0.055765 -0.485170 0.872640
vn 0.888861 -0.197826 0.413268
vn 0.888861 -0.197826 0.413268
vn 0.888861 -0.197826 0.413268
vn 0.888861 -0.197826 0.413268
vn 0.779209 -0.248299 -0.575483
vn 0.779209 -0.248299 -0.575483
vn 0.779209 -0.248299 -0.575483
vn 0.779209 -0.248299 -0.575483
vn 0.779209 -0.248299 -0.575483
vn 0.779209 -0.248299 -0.575483
vn 0.779209 -0.248299 -0.575483
vn -0.110266 0.359601 -0.926568
vn -0.110266 0.359601 -0.926568
vn -0.110266 0.359601 -0.926568
vn -0.693918 0.425427 -0.580939
vn -0.693918 0.425427 -0.580939
vn -0.693918 0.425427 -0.580939
vn -0.693918 0.425427 -0.580939
vn -0.869273 0.388041 0.306250
vn -0.869273 0.388041 0.306250
vn -0.869273 0.388041 0.306250
vn -0.869273 0.388041 0.306250
vn -0.869273 0.388041 0.306250
vn -0.869273 0.388041 0.306250
vn -0.869273 0.388041 0.306250
vn -0.869273 0.388041 0.306250
vn -0.869273 0.388041 0.306250
vn -0.869273 0.388041 0.306250
vn 0.121033 0.397459 0.909603
vn 0.121033 0.397459 0.909603
vn 0.121033 0.397459 0.909603
vn 0.121033 0.397459 0.909603
vn 0.831365 0.261026 0.490609
vn 0.831365 0.261026 0.490609
vn 0.831365 0.261026 0.490609
vn 0.831365 0.261026 0.490609
vn 0.792100 0.280553 -0.542096
vn 0.792100 0.280553 -0.542096
vn 0.792100 0.280553 -0.542096
vn 0.792100 0.280553 -0.542096
vn 0.792100 0.280553 -0.542096
vn 0.792100 0.280553 -0.542096
vn 0.792100 0.280553 -0.542096
vn -0.112872 0.467945 -0.876520
vn -0.112872 0.467945 -0.876520
vn -0.112872 0.467945 -0.876520
vn -0.457863 0.768904 -0.446260
vn -0.457863 0.768904 -0.446260
vn -0.457863 0.768904 -0.446260
vn -0.457863 0.768904 -0.446260
vn -0.401275 0.913206 0.070952
vn -0.401275 0.913206 0.070952
vn -0.401274 0.913206 0.070952
vn -0.401274 0.913206 0.070952
vn -0.401274 0.913206 0.070952
vn 0.043862 0.785941 0.616744
vn 0.043862 0.785941 0.616744
vn 0.043862 0.785941 0.616744
vn 0.043862 0.785941 0.616744
vn 0.043862 0.785941 0.616744
vn 0.603014 0.566358 0.561794
vn 0.603014 0.566358 0.561794
vn 0.603014 0.566358 0.561794
vn 0.603014 0.566358 0.561794
vn 0.548555 0.550818 -0.629036
vn 0.548555 0.550818 -0.629036
vn 0.548555 0.550818 -0.629036
vn 0.062098 -0.992092 -0.109075
vn 0.062098 -0.992092 -0.109075
vn 0.062098 -0.992092 -0.109075
vn -0.103028 -0.994581 -0.013923
vn -0.103028 -0.994581 -0.013923
vn -0.103028 -0.994581 -0.013923
vn -0.102616 -0.990600 -0.090453
vn -0.102616 -0.990600 -0.090453
vn -0.102616 -0.990600 -0.090453
vn 0.282568 -0.949952 0.133214
vn 0.282568 -0.949952 0.133214
vn 0.282568 -0.949952 0.133214
vn 0.314837 -0.942484 0.112254
vn 0.314837 -0.942484 0.112254
vn 0.314837 -0.942484 0.112254
vn 0.316529 -0.947547 0.044328
vn 0.316529 -0.947547 0.044328
vn 0.316529 -0.947547 0.044328
vn -0.371831 0.787559 -0.491419
vn -0.371831 0.787559 -0.491419
vn -0.371831 0.787559 -0.491419
vn -0.553991 0.752940 -0.355211
vn -0.553991 0.752940 -0.355211
vn -0.553991 0.752940 -0.355211
vn -0.586725 0.797429 0.140931
vn -0.586725 0.797429 0.140931
vn -0.586725 0.797429 0.140931
vn -0.301863 0.883835 0.357372
vn -0.301863 0.883835 0.357372
vn -0.301863 0.883835 0.357372
vn 0.025424 0.981708 0.188689
vn 0.025424 0.981708 0.188689
vn 0.025424 0.981708 0.188689
vn 0.024538 0.947511 -0.318781
vn 0.024538 0.947511 -0.318781
vn 0.024538 0.947511 -0.318781
vn 0.759458 0.027320 -0.649983
vn 0.759458 0.027320 -0.649983
vn 0.759458 0.027320 -0.649983
vn 0.759458 0.027320 -0.649983
vn 0.759458 0.027320 -0.649983
vn 0.759458 0.027320 -0.649983
vn 0.794897 -0.404563 -0.452180
vn 0.794897 -0.404563 -0.452180
vn 0.794897 -0.404563 -0.452180
vn 0.798682 0.394568 -0.454338
vn 0.798682 0.394568 -0.454338
vn 0.798682 0.394568 -0.454338
vn -0.215049 0.194872 -0.956963
vn -0.215049 0.194872 -0.956963
vn -0.215049 0.194872 -0.956964
vn -0.215049 0.194872 -0.956964
vn -0.215049 0.194872 -0.956964
vn -0.220663 0.560374 -0.798304
vn -0.220663 0.560374 -0.798304
vn -0.220663 0.560374 -0.798304
vn -0.220663 0.560374 -0.798304
vn -0.220663 0.560374 -0.798304
vn 0.552578 0.553890 -0.622787
vn 0.552578 0.553890 -0.622787
vn 0.552578 0.553890 -0.622787
vn 0.552578 0.553890 -0.622787
vn 0.552578 0.553890 -0.622787
vn 0.148809 0.556034 -0.817730
vn 0.148809 0.556034 -0.817730
vn 0.148809 0.556034 -0.817730
vn 0.148809 0.556034 -0.817730
vn 0.723632 0.614018 -0.315181
vn 0.877788 0.472494 -0.078975
vn 0.877788 0.472494 -0.078975
vn 0.773880 0.580793 -0.252564
vn 0.978082 0.037401 -0.204834
vn 0.978082 0.037401 -0.204834
vn 0.978082 0.037401 -0.204834
vn 0.978082 0.037401 -0.204833
vn 0.624994 0.676798 0.389007
vn 0.249929 -0.710695 -0.657608
vn 0.672591 0.650003 0.353720
vn 0.624994 0.676798 0.389007
vn 0.889044 -0.018828 -0.457435
vn 0.761158 -0.076252 -0.644068
vn 0.761158 -0.076252 -0.644068
vn 0.796935 -0.062328 -0.600841
vn 0.080756 0.381628 -0.920782
vn 0.080756 0.381628 -0.920782
vn 0.080756 0.381628 -0.920782
vn 0.080756 0.381628 -0.920782
vn 0.570313 0.677674 -0.464222
vn 0.570313 0.677674 -0.464221
vn 0.125904 -0.746593 -0.653259
vn 0.125904 -0.746593 -0.653259
vn 0.941998 0.015646 -0.335254
vn 0.941998 0.015646 -0.335254
vn -0.914803 0.334839 0.225873
vn -0.914803 0.334839 0.225873
vn -0.914803 0.334839 0.225873
vn -0.914803 0.334839 0.225873
vn -0.914803 0.334839 0.225873
vn -0.914803 0.334839 0.225873
vn -0.388865 0.918883 0.066621
vn -0.388865 0.918883 0.066621
vn -0.388865 0.918883 0.066621
vn -0.369003 0.928646 0.038120
vn -0.369003 0.928646 0.038120
vn -0.369003 0.928646 0.038120
vn -0.369003 0.928646 0.038120
vn -0.369003 0.928646 0.038120
vn -0.369003 0.928646 0.038120
vn -0.369003 0.928646 0.038120
vn -0.502581 0.858020 0.105897
vn -0.489767 0.863388 0.121198
vn -0.494186 0.861588 0.115956
vn -0.502581 0.858020 0.105897
vn -0.468857 0.871201 0.145542
vn -0.468857 0.871201 0.145542
vn 0.927378 0.161832 0.337313
vn 0.927378 0.161832 0.337313
vn 0.927378 0.161832 0.337313
vn 0.927378 0.161832 0.337313
vn -0.452417 0.890239 -0.052849
vn -0.452417 0.890240 -0.052849
vn -0.452416 0.890240 -0.052849
vn -0.452417 0.890240 -0.052849
vn -0.867718 0.494163 -0.053558
vn -0.867718 0.494164 -0.053558
vn -0.867718 0.494164 -0.053558
vn -0.867718 0.494163 -0.053558
vn -0.652259 -0.372014 0.660427
vn -0.652259 -0.372014 0.660427
vn -0.652259 -0.372014 0.660427
vn -0.652259 -0.372014 0.660427
vn -0.963349 -0.054482 0.262659
vn -0.963349 -0.054482 0.262659
vn -0.963349 -0.054482 0.262659
vn -0.963349 -0.054482 0.262659
vn -0.761791 -0.147005 -0.630923
vn -0.761791 -0.147005 -0.630923
vn -0.761791 -0.147005 -0.630923
vn -0.761791 -0.147005 -0.630923
vn -0.884719 0.212626 0.414803
vn -0.884719 0.212626 0.414803
vn -0.884719 0.212626 0.414803
vn -0.884719 0.212626 0.414803
s off
g roca3
usemtl initialShadingGroup
f 1/1/1 2/2/2 8/9/3 7/8/4
f 2/2/5 3/3/6 9/10/7 8/9/8
f 3/3/9 4/4/10 10/11/11 9/10/12
f 4/4/13 5/5/14 11/12/15 10/11/16
f 5/5/17 6/6/18 12/13/19 11/12/20
f 6/6/21 1/7/22 7/14/23 12/13/24
f 7/8/25 8/9/26 14/16/27 13/15/28
f 8/9/29 9/10/30 15/17/31 14/16/32
f 9/10/33 10/11/34 16/18/35 15/17/36
f 10/11/37 11/12/38 17/19/39 16/18/40
f 11/12/41 12/13/42 18/20/43 17/19/44
f 12/13/45 7/14/46 13/21/47 34/50/48 40/58/49 33/49/50 18/20/51
f 41/59/52 42/60/53 43/22/54
f 14/16/55 15/17/56 20/24/57 19/23/58
f 15/17/59 16/18/60 21/25/61 52/71/62 54/73/63 55/74/64 56/75/65 57/76/66 51/70/67 20/24/68
f 16/18/69 17/19/70 22/26/71 21/25/72
f 17/19/73 18/20/74 23/27/75 22/26/76
f 44/61/77 45/62/78 46/63/79 47/64/80 48/65/81 41/66/82 43/28/83
f 43/22/84 42/60/85 49/67/86
f 19/23/87 20/24/88 26/31/89 25/30/90
f 60/79/91 61/80/92 62/81/93 63/82/94 64/83/95
f 21/25/96 22/26/97 28/33/98 27/32/99 53/72/100
f 22/26/101 23/27/102 29/34/103 28/33/104
f 49/68/105 44/61/106 43/28/107
f 2/2/108 1/1/109 30/36/110
f 3/3/111 2/2/112 30/37/113
f 4/4/114 3/3/115 30/38/116
f 5/5/117 4/4/118 30/39/119
f 6/6/120 5/5/121 30/40/122
f 1/7/123 6/6/124 30/41/125
f 24/29/126 25/30/127 31/42/128
f 25/30/129 26/31/130 31/43/131
f 26/31/132 27/32/133 31/44/134
f 27/32/135 28/33/136 31/45/137
f 28/33/138 29/34/139 31/46/140
f 29/34/141 24/35/142 31/47/143
f 18/20/144 33/49/145 39/57/146 38/56/147 32/48/148 23/27/149
f 47/64/150 50/69/151 48/65/152
f 35/51/153 34/50/154 13/21/155
f 13/15/156 14/16/157 19/23/158 36/53/159 35/52/160
f 37/55/161 36/53/162 19/23/163 25/30/164 24/29/165
f 23/27/166 32/48/167 37/54/168 24/35/169 29/34/170
f 35/52/171 36/53/172 42/60/173 41/59/174
s 1
f 32/48/175 38/56/176 45/62/177 44/61/178
s off
f 38/56/179 39/57/180 46/63/181 45/62/182
s 2
f 39/57/183 33/49/184 47/64/185 46/63/186
s 3
f 34/50/187 35/51/188 41/66/189 48/65/190
s off
f 36/53/191 37/55/192 49/67/193 42/60/194
s 1
f 37/54/195 32/48/175 44/61/178 49/68/196
s 2
f 33/49/184 40/58/197 50/69/198 47/64/185
s 3
f 40/58/199 34/50/187 48/65/190 50/69/200
s off
f 63/82/201 65/84/202 66/85/203 67/86/204 68/87/205 64/83/206
f 53/72/207 52/71/208 21/25/209
f 20/24/210 51/70/211 59/78/212 58/77/213 53/72/214 27/32/215 26/31/216
s 4
f 53/72/217 58/77/218 61/80/219 60/79/220
f 58/77/218 59/78/221 62/81/222 61/80/219
s off
f 59/78/223 51/70/224 63/82/225 62/81/226
f 52/71/227 53/72/228 60/79/229 64/83/230
f 51/70/231 57/76/232 65/84/233 63/82/234
f 57/76/235 56/75/236 66/85/237 65/84/238
f 56/75/239 55/74/240 67/86/241 66/85/242
f 55/74/243 54/73/244 68/87/245 67/86/246
f 54/73/247 52/71/248 64/83/249 68/87/250
