# This file uses centimeters as units for non-parametric coordinates.

mtllib MOD_BAMBOO_VO4.mtl
g default
v -35.375249 -0.557212 0.434806
v -35.369016 -0.557212 0.011251
v -35.769917 -0.557212 -0.125563
v -36.023920 -0.557212 0.213438
v -35.780001 -0.557212 0.559765
v -35.299950 5.189417 0.214935
v -35.323276 5.364730 -0.178910
v -35.780466 5.364730 -0.334934
v -36.039697 5.189417 -0.037515
v -35.742722 5.081068 0.302319
v -35.456939 0.418755 0.555663
v -35.861694 0.418755 0.680623
v -36.105611 0.418755 0.334294
v -35.851607 0.418755 -0.004707
v -35.450706 0.418755 0.132104
v -35.263134 0.460436 -0.015178
v -35.273191 0.460436 0.668252
v -35.926279 0.460436 0.869876
v -36.319852 0.460436 0.311062
v -35.910007 0.460436 -0.235934
v -35.450706 0.518546 0.132104
v -35.456939 0.518546 0.555663
v -35.861694 0.518546 0.680623
v -36.096626 0.518546 0.469527
v -35.851607 0.518546 -0.004707
v -35.339684 1.454736 0.376564
v -35.744437 1.454736 0.501523
v -35.988357 1.454736 0.155193
v -35.734353 1.454736 -0.183810
v -35.333451 1.454736 -0.046994
v -35.339684 1.523927 0.376564
v -35.744437 1.523927 0.501523
v -35.988357 1.523927 0.155193
v -35.734353 1.523927 -0.183810
v -35.333451 1.523927 -0.046994
v -35.176032 1.486447 0.476834
v -35.801959 1.486447 0.670079
v -36.179166 1.486447 0.134501
v -35.786363 1.486447 -0.389748
v -35.166394 1.486447 -0.178172
v -35.304254 2.386366 0.363780
v -35.709007 2.386366 0.488737
v -35.952926 2.386366 0.142409
v -35.698923 2.386366 -0.196591
v -35.298021 2.386366 -0.059777
v -35.307826 2.325205 0.310019
v -35.712579 2.325205 0.434977
v -35.956498 2.325205 0.088649
v -35.702495 2.325205 -0.250351
v -35.301593 2.325205 -0.113537
v -35.175156 2.359018 0.442881
v -35.754385 2.359018 0.621706
v -36.103448 2.359018 0.126084
v -35.739952 2.359018 -0.359048
v -35.166236 2.359018 -0.163258
v -35.239059 3.158605 0.466777
v -35.818074 3.158605 0.645532
v -36.167008 3.158605 0.150096
v -35.803647 3.158605 -0.334859
v -35.230142 3.158605 -0.139140
v -35.367999 3.107419 0.387769
v -35.772751 3.107419 0.512728
v -36.016670 3.107419 0.166401
v -35.762667 3.107419 -0.172600
v -35.361766 3.107419 -0.035786
v -35.367999 3.204124 0.387769
v -35.772751 3.204124 0.512728
v -36.016670 3.204124 0.166401
v -35.762667 3.204124 -0.172600
v -35.361766 3.204124 -0.035786
v -35.370677 4.093937 0.442123
v -35.942815 4.093937 0.618756
v -36.287603 4.093937 0.129205
v -35.928558 4.093937 -0.349988
v -35.361868 4.093937 -0.156594
v -35.494527 4.140498 0.366235
v -35.899282 4.140498 0.491196
v -36.143200 4.140498 0.144864
v -35.889196 4.140498 -0.194136
v -35.488295 4.140498 -0.057320
v -35.494527 3.872868 0.366235
v -35.899282 3.872868 0.491196
v -36.143200 3.872868 0.144864
v -35.889196 3.872868 -0.194136
v -35.488295 3.872868 -0.057320
v -35.666276 5.226617 -0.018267
v -36.039997 5.172940 -0.033851
v -35.780849 5.345499 -0.331923
v -35.324544 5.345499 -0.176200
v -35.301681 5.172940 0.218112
v -35.743856 5.066293 0.306086
v -35.687815 -0.557212 0.212023
v -35.376269 -0.540784 0.437796
v -35.781021 -0.540784 0.562755
v -36.024940 -0.540784 0.216427
v -35.770937 -0.540784 -0.122574
v -35.370036 -0.540784 0.014240
vt 0.375000 0.312500
vt 0.425000 0.312500
vt 0.475000 0.312500
vt 0.525000 0.312500
vt 0.575000 0.312500
vt 0.625000 0.312500
vt 0.375000 0.688440
vt 0.425000 0.688440
vt 0.475000 0.688440
vt 0.525000 0.688440
vt 0.575000 0.688440
vt 0.625000 0.688440
vt 0.625000 0.396959
vt 0.375000 0.396959
vt 0.575000 0.396959
vt 0.525000 0.396959
vt 0.475000 0.396959
vt 0.425000 0.396959
vt 0.425000 0.399064
vt 0.625000 0.399064
vt 0.375000 0.399064
vt 0.575000 0.399064
vt 0.525000 0.399064
vt 0.475000 0.399064
vt 0.425000 0.400560
vt 0.625000 0.400560
vt 0.375000 0.400560
vt 0.575000 0.400560
vt 0.525000 0.400560
vt 0.475000 0.400560
vt 0.625000 0.462962
vt 0.375000 0.462962
vt 0.575000 0.462962
vt 0.525000 0.462962
vt 0.475000 0.462962
vt 0.425000 0.462962
vt 0.625000 0.466835
vt 0.375000 0.466835
vt 0.575000 0.466835
vt 0.525000 0.466835
vt 0.475000 0.466835
vt 0.425000 0.466835
vt 0.625000 0.464570
vt 0.375000 0.464570
vt 0.575000 0.464570
vt 0.525000 0.464570
vt 0.475000 0.464570
vt 0.425000 0.464570
vt 0.625000 0.521288
vt 0.375000 0.521288
vt 0.575000 0.521288
vt 0.525000 0.521288
vt 0.475000 0.521288
vt 0.425000 0.521288
vt 0.625000 0.517566
vt 0.375000 0.517566
vt 0.575000 0.517566
vt 0.525000 0.517566
vt 0.475000 0.517566
vt 0.425000 0.517566
vt 0.625000 0.518748
vt 0.375000 0.518748
vt 0.575000 0.518748
vt 0.525000 0.518748
vt 0.475000 0.518748
vt 0.425000 0.518748
vt 0.625000 0.568394
vt 0.375000 0.568394
vt 0.575000 0.568394
vt 0.525000 0.568394
vt 0.475000 0.568394
vt 0.425000 0.568394
vt 0.625000 0.565830
vt 0.375000 0.565830
vt 0.575000 0.565830
vt 0.525000 0.565830
vt 0.475000 0.565830
vt 0.425000 0.565830
vt 0.625000 0.571243
vt 0.375000 0.571243
vt 0.575000 0.571243
vt 0.525000 0.571243
vt 0.475000 0.571243
vt 0.425000 0.571243
vt 0.625000 0.614758
vt 0.375000 0.614758
vt 0.575000 0.614758
vt 0.525000 0.614758
vt 0.475000 0.614758
vt 0.425000 0.614758
vt 0.625000 0.617038
vt 0.375000 0.617038
vt 0.575000 0.617038
vt 0.525000 0.617038
vt 0.475000 0.617038
vt 0.425000 0.617038
vt 0.625000 0.610766
vt 0.375000 0.610766
vt 0.575000 0.610766
vt 0.525000 0.610766
vt 0.475000 0.610766
vt 0.425000 0.610766
vt 0.000000 0.000000
vt 1.000000 0.000000
vt 0.500000 1.000000
vt 0.000000 0.000000
vt 1.000000 0.000000
vt 0.500000 1.000000
vt 0.000000 0.000000
vt 1.000000 0.000000
vt 0.500000 1.000000
vt 0.000000 0.000000
vt 1.000000 0.000000
vt 0.500000 1.000000
vt 0.000000 0.000000
vt 1.000000 0.000000
vt 0.500000 1.000000
vt 0.525000 0.687318
vt 0.475000 0.687318
vt 0.425000 0.687318
vt 0.625000 0.687318
vt 0.375000 0.687318
vt 0.575000 0.687318
vt 0.000000 0.000000
vt 1.000000 0.000000
vt 0.500000 1.000000
vt 0.000000 0.000000
vt 1.000000 0.000000
vt 0.500000 1.000000
vt 0.000000 0.000000
vt 1.000000 0.000000
vt 0.500000 1.000000
vt 0.000000 0.000000
vt 1.000000 0.000000
vt 0.500000 1.000000
vt 0.000000 0.000000
vt 1.000000 0.000000
vt 0.500000 1.000000
vt 0.625000 0.313922
vt 0.375000 0.313922
vt 0.575000 0.313922
vt 0.525000 0.313922
vt 0.475000 0.313922
vt 0.425000 0.313922
vn 0.998131 0.059312 0.014689
vn 0.998131 0.059312 0.014689
vn 0.996630 0.080711 0.014665
vn 0.996533 0.081895 0.014664
vn 0.317168 0.188815 -0.929383
vn 0.317168 0.188815 -0.929383
vn 0.319671 0.142648 -0.936729
vn 0.319660 0.142888 -0.936697
vn -0.798871 0.059310 -0.598572
vn -0.798871 0.059310 -0.598572
vn -0.800264 0.006551 -0.599612
vn -0.800236 0.010637 -0.599592
vn -0.807858 -0.153707 0.568981
vn -0.807858 -0.153707 0.568981
vn -0.809724 -0.138273 0.570287
vn -0.809690 -0.138573 0.570263
vn 0.291488 -0.153706 0.944145
vn 0.291488 -0.153706 0.944145
vn 0.293662 -0.094835 0.951194
vn 0.293723 -0.092633 0.951392
vn 0.253725 -0.510107 0.821836
vn 0.283038 -0.281769 0.916785
vn 0.294988 0.000209 0.955501
vn 0.294988 0.000180 0.955501
vn -0.763831 -0.356590 0.537965
vn -0.738100 -0.430085 0.519842
vn -0.691608 -0.491622 0.529138
vn -0.375963 -0.883837 0.278358
vn -0.784700 -0.196365 -0.587951
vn -0.615014 -0.639853 -0.460810
vn -0.500994 0.797061 -0.337193
vn -0.718216 0.493719 -0.490313
vn 0.318464 -0.166525 -0.933193
vn 0.311818 -0.260562 -0.913716
vn 0.322974 0.000135 -0.946408
vn 0.322974 0.000139 -0.946408
vn 0.881809 -0.471429 0.012976
vn 0.989080 -0.146662 0.014554
vn 0.999892 0.000162 0.014714
vn 0.999892 0.000128 0.014714
vn 0.994507 0.103644 0.014635
vn 0.871481 0.490262 0.012824
vn 0.279536 0.319428 0.905442
vn 0.247797 0.542557 0.802638
vn -0.692595 0.412364 0.591835
vn -0.687601 0.427020 0.587247
vn -0.570946 0.740305 -0.354920
vn -0.832691 0.209878 -0.512423
vn 0.316645 0.197020 -0.927857
vn 0.321353 0.100119 -0.941652
vn 0.788994 -0.614292 0.011610
vn 0.957306 -0.288734 0.014087
vn 0.274616 -0.365198 0.889504
vn 0.294821 -0.033917 0.954950
vn -0.761889 0.004637 0.647691
vn -0.743140 -0.237951 0.625398
vn -0.837162 -0.179274 -0.516741
vn -0.583778 -0.721240 -0.372849
vn 0.290643 -0.436112 -0.851664
vn 0.280442 -0.496028 -0.821772
vn 0.294993 0.000082 0.955499
vn 0.294993 0.000071 0.955499
vn -0.817577 0.000071 0.575819
vn -0.817577 0.000083 0.575819
vn -0.800281 0.000052 -0.599625
vn -0.800281 0.000068 -0.599625
vn 0.322980 0.000053 -0.946406
vn 0.322980 0.000053 -0.946406
vn 0.999892 0.000067 0.014713
vn 0.999892 0.000052 0.014713
vn 0.265099 0.438622 0.858681
vn 0.282661 0.286076 0.915567
vn 0.274951 -0.362272 0.890596
vn 0.290588 -0.172092 0.941245
vn -0.776913 0.311447 0.547181
vn -0.745466 0.410634 0.525033
vn -0.806639 -0.163026 0.568117
vn -0.793977 -0.238534 0.559198
vn -0.781956 0.212766 -0.585897
vn -0.683663 0.519815 -0.512248
vn -0.790372 -0.156873 -0.592202
vn -0.749412 -0.350834 -0.561512
vn 0.312933 0.247466 -0.916970
vn 0.309966 0.280991 -0.908276
vn 0.312668 -0.250650 -0.916195
vn 0.309806 -0.282672 -0.907809
vn 0.879171 0.476331 0.012937
vn 0.979413 0.201352 0.014412
vn 0.909129 -0.416301 0.013378
vn 0.973656 -0.227573 0.014328
vn 0.291189 0.160006 0.943190
vn 0.261554 0.462432 0.847199
vn 0.290659 -0.170714 0.941474
vn 0.267718 -0.419939 0.867167
vn -0.808621 0.147608 0.569512
vn -0.801877 0.195029 0.564763
vn -0.783446 -0.285918 0.551782
vn -0.769838 -0.336708 0.542197
vn -0.729135 0.412188 -0.546318
vn -0.791649 0.146474 -0.593159
vn -0.723326 -0.427870 -0.541966
vn -0.776666 -0.241133 -0.581932
vn 0.284595 0.472814 -0.833938
vn 0.311016 0.269623 -0.911358
vn 0.300416 -0.367187 -0.880297
vn 0.318981 -0.156818 -0.934697
vn 0.951979 0.305844 0.014009
vn 0.916875 0.398946 0.013492
vn 0.987004 -0.160038 0.014524
vn 0.973195 -0.229534 0.014321
vn 0.171639 -0.813299 0.555954
vn 0.198443 -0.739905 0.642776
vn -0.801011 -0.200292 0.564150
vn -0.533060 -0.758220 0.375433
vn -0.471339 0.808156 -0.353161
vn -0.741827 0.375160 -0.555830
vn 0.230102 0.701732 -0.674259
vn 0.175015 0.840456 -0.512838
vn 0.815859 -0.578126 0.012006
vn 0.896808 0.442224 0.013198
vn 0.294987 -0.000088 0.955501
vn 0.294987 -0.000102 0.955501
vn 0.246768 0.547930 0.799299
vn 0.286309 0.240851 0.927372
vn -0.817578 -0.000102 0.575818
vn -0.817578 -0.000089 0.575818
vn -0.778868 0.304060 0.548554
vn -0.815784 0.066223 0.574553
vn -0.800281 -0.000084 -0.599625
vn -0.800281 -0.000065 -0.599625
vn -0.798237 0.071419 -0.598095
vn -0.775495 0.246944 -0.581056
vn 0.322977 -0.000065 -0.946407
vn 0.322977 -0.000065 -0.946407
vn 0.315506 0.213869 -0.924509
vn 0.239191 0.671969 -0.700889
vn 0.999892 -0.000065 0.014714
vn 0.999892 -0.000084 0.014714
vn 0.911333 0.411452 0.013410
vn 0.901643 0.432279 0.013267
vn 0.294330 -0.066946 0.953356
vn 0.285896 -0.246390 0.926043
vn -0.795830 -0.229118 0.560500
vn -0.778905 -0.303918 0.548580
vn -0.758151 -0.320177 -0.568061
vn -0.768063 -0.280880 -0.575487
vn 0.300712 -0.364873 -0.881158
vn 0.320551 -0.122379 -0.939292
vn 0.994818 -0.100615 0.014637
vn 0.998186 -0.058382 0.014687
vn 0.294988 -0.002779 0.955497
vn 0.294988 -0.003219 0.955496
vn 0.226268 0.223473 0.948084
vn 0.215624 0.438089 0.872688
vn -0.817575 -0.003219 0.575814
vn -0.817576 -0.002779 0.575814
vn -0.717669 0.372307 0.588506
vn -0.728594 0.330753 0.599794
vn -0.800277 -0.002655 -0.599625
vn -0.800278 -0.002046 -0.599626
vn -0.680624 0.492164 -0.542702
vn -0.773601 0.103441 -0.625174
vn 0.322979 -0.002062 -0.946404
vn 0.322979 -0.002062 -0.946404
vn 0.322204 0.069276 -0.944132
vn 0.322968 -0.008547 -0.946371
vn 0.999890 -0.002045 0.014711
vn 0.999888 -0.002654 0.014711
vn 0.998568 -0.014265 -0.051551
vn 0.989695 0.135112 -0.047424
vn 0.222044 0.128904 0.966478
vn 0.226621 0.124549 0.965987
vn -0.750522 0.214982 0.624899
vn -0.749752 0.214593 0.625957
vn -0.776399 -0.016040 -0.630038
vn -0.772772 -0.022559 -0.634282
vn 0.319968 -0.136249 -0.937580
vn 0.319960 -0.136436 -0.937556
vn 0.985293 -0.161397 -0.056119
vn 0.985069 -0.163228 -0.054731
vn -0.169409 0.896607 0.409141
vn -0.169409 0.896607 0.409141
vn -0.169409 0.896607 0.409141
vn -0.150245 0.885211 0.440258
vn -0.150245 0.885211 0.440258
vn -0.150245 0.885211 0.440258
vn -0.111420 0.895557 0.430770
vn -0.111420 0.895557 0.430770
vn -0.111420 0.895557 0.430770
vn -0.111153 0.914618 0.388741
vn -0.111153 0.914618 0.388741
vn -0.111153 0.914618 0.388741
vn -0.148650 0.913297 0.379200
vn -0.148650 0.913297 0.379200
vn -0.148650 0.913297 0.379200
vn -0.714911 -0.115237 -0.689654
vn -0.714911 -0.115237 -0.689654
vn 0.319185 -0.152827 -0.935289
vn 0.319185 -0.152827 -0.935289
vn 0.989737 -0.099960 -0.102120
vn 0.989737 -0.099960 -0.102120
vn 0.142869 0.202164 0.968875
vn 0.142869 0.202164 0.968875
vn -0.707981 0.193960 0.679074
vn -0.707981 0.193960 0.679074
vn 0.000000 -1.000000 -0.000000
vn 0.000000 -1.000000 -0.000000
vn 0.000000 -1.000000 -0.000000
vn 0.000000 -1.000000 -0.000000
vn 0.000000 -1.000000 -0.000000
vn 0.000000 -1.000000 -0.000000
vn -0.000001 -1.000000 -0.000000
vn -0.000001 -1.000000 -0.000000
vn -0.000001 -1.000000 -0.000000
vn -0.000001 -1.000000 0.000000
vn -0.000001 -1.000000 0.000000
vn -0.000001 -1.000000 0.000000
vn 0.000000 -1.000000 0.000000
vn 0.000000 -1.000000 0.000000
vn 0.000000 -1.000000 0.000000
s 1
g Bamboo_4
usemtl initialShadingGroup
f 1/1/1 2/2/2 97/144/3 93/140/4
s 2
f 2/2/5 3/3/6 96/143/7 97/144/8
s 3
f 3/3/9 4/4/10 95/142/11 96/143/12
s 4
f 4/4/13 5/5/14 94/141/15 95/142/16
s 5
f 5/5/17 1/6/18 93/139/19 94/141/20
f 12/15/21 11/13/22 17/20/23 18/22/24
s 4
f 13/16/25 12/15/26 18/22/27 19/23/28
s 3
f 14/17/29 13/16/30 19/23/31 20/24/32
s 2
f 15/18/33 14/17/34 20/24/35 16/19/36
s 1
f 11/14/37 15/18/38 16/19/39 17/21/40
f 17/21/40 16/19/39 21/25/41 22/27/42
s 5
f 18/22/24 17/20/23 22/26/43 23/28/44
s 4
f 19/23/28 18/22/27 23/28/45 24/29/46
s 3
f 20/24/32 19/23/31 24/29/47 25/30/48
s 2
f 16/19/36 20/24/35 25/30/49 21/25/50
s 1
f 22/27/42 21/25/41 30/36/51 26/32/52
s 5
f 23/28/44 22/26/43 26/31/53 27/33/54
s 4
f 24/29/46 23/28/45 27/33/55 28/34/56
s 3
f 25/30/48 24/29/47 28/34/57 29/35/58
s 2
f 21/25/50 25/30/49 29/35/59 30/36/60
s 5
f 27/33/54 26/31/53 36/43/61 37/45/62
s 4
f 28/34/56 27/33/55 37/45/63 38/46/64
s 3
f 29/35/58 28/34/57 38/46/65 39/47/66
s 2
f 30/36/60 29/35/59 39/47/67 40/48/68
s 1
f 26/32/52 30/36/51 40/48/69 36/44/70
s 5
f 32/39/71 31/37/72 46/55/73 47/57/74
s 4
f 33/40/75 32/39/76 47/57/77 48/58/78
s 3
f 34/41/79 33/40/80 48/58/81 49/59/82
s 2
f 35/42/83 34/41/84 49/59/85 50/60/86
s 1
f 31/38/87 35/42/88 50/60/89 46/56/90
s 5
f 37/45/62 36/43/61 31/37/72 32/39/71
s 4
f 38/46/64 37/45/63 32/39/76 33/40/75
s 3
f 39/47/66 38/46/65 33/40/80 34/41/79
s 2
f 40/48/68 39/47/67 34/41/84 35/42/83
s 1
f 36/44/70 40/48/69 35/42/88 31/38/87
s 5
f 42/51/91 41/49/92 61/73/93 62/75/94
s 4
f 43/52/95 42/51/96 62/75/97 63/76/98
s 3
f 44/53/99 43/52/100 63/76/101 64/77/102
s 2
f 45/54/103 44/53/104 64/77/105 65/78/106
s 1
f 41/50/107 45/54/108 65/78/109 61/74/110
s 5
f 47/57/74 46/55/73 51/61/111 52/63/112
s 4
f 48/58/78 47/57/77 52/63/113 53/64/114
s 3
f 49/59/82 48/58/81 53/64/115 54/65/116
s 2
f 50/60/86 49/59/85 54/65/117 55/66/118
s 1
f 46/56/90 50/60/89 55/66/119 51/62/120
s 5
f 52/63/112 51/61/111 41/49/92 42/51/91
s 4
f 53/64/114 52/63/113 42/51/96 43/52/95
s 3
f 54/65/116 53/64/115 43/52/100 44/53/99
s 2
f 55/66/118 54/65/117 44/53/104 45/54/103
s 1
f 51/62/120 55/66/119 45/54/108 41/50/107
s 5
f 57/69/121 56/67/122 66/79/123 67/81/124
s 4
f 58/70/125 57/69/126 67/81/127 68/82/128
s 3
f 59/71/129 58/70/130 68/82/131 69/83/132
s 2
f 60/72/133 59/71/134 69/83/135 70/84/136
s 1
f 56/68/137 60/72/138 70/84/139 66/80/140
s 5
f 62/75/94 61/73/93 56/67/122 57/69/121
s 4
f 63/76/98 62/75/97 57/69/126 58/70/125
s 3
f 64/77/102 63/76/101 58/70/130 59/71/129
s 2
f 65/78/106 64/77/105 59/71/134 60/72/133
s 1
f 61/74/110 65/78/109 60/72/138 56/68/137
s 5
f 67/81/124 66/79/123 81/97/141 82/99/142
s 4
f 68/82/128 67/81/127 82/99/143 83/100/144
s 3
f 69/83/132 68/82/131 83/100/145 84/101/146
s 2
f 70/84/136 69/83/135 84/101/147 85/102/148
s 1
f 66/80/140 70/84/139 85/102/149 81/98/150
s 5
f 72/87/151 71/85/152 76/91/153 77/93/154
s 4
f 73/88/155 72/87/156 77/93/157 78/94/158
s 3
f 74/89/159 73/88/160 78/94/161 79/95/162
s 2
f 75/90/163 74/89/164 79/95/165 80/96/166
s 1
f 71/86/167 75/90/168 80/96/169 76/92/170
s 5
f 77/93/154 76/91/153 90/121/171 91/123/172
s 4
f 78/94/158 77/93/157 91/123/173 87/118/174
s 3
f 79/95/162 78/94/161 87/118/175 88/119/176
s 2
f 80/96/166 79/95/165 88/119/177 89/120/178
s 1
f 76/92/170 80/96/169 89/120/179 90/122/180
s 5
f 82/99/142 81/97/141 71/85/152 72/87/151
s 4
f 83/100/144 82/99/143 72/87/156 73/88/155
s 3
f 84/101/146 83/100/145 73/88/160 74/89/159
s 2
f 85/102/148 84/101/147 74/89/164 75/90/163
s 1
f 81/98/150 85/102/149 75/90/168 71/86/167
s off
f 6/103/181 7/104/182 86/105/183
f 7/106/184 8/107/185 86/108/186
f 8/109/187 9/110/188 86/111/189
f 9/112/190 10/113/191 86/114/192
f 10/115/193 6/116/194 86/117/195
s 3
f 88/119/176 87/118/175 9/10/196 8/9/197
s 2
f 89/120/178 88/119/177 8/9/198 7/8/199
s 1
f 90/122/180 89/120/179 7/8/200 6/7/201
s 5
f 91/123/172 90/121/171 6/12/202 10/11/203
s 4
f 87/118/174 91/123/173 10/11/204 9/10/205
s off
f 2/124/206 1/125/207 92/126/208
f 3/127/209 2/128/210 92/129/211
f 4/130/212 3/131/213 92/132/214
f 5/133/215 4/134/216 92/135/217
f 1/136/218 5/137/219 92/138/220
s 5
f 94/141/20 93/139/19 11/13/22 12/15/21
s 4
f 95/142/16 94/141/15 12/15/26 13/16/25
s 3
f 96/143/12 95/142/11 13/16/30 14/17/29
s 2
f 97/144/8 96/143/7 14/17/34 15/18/33
s 1
f 93/140/4 97/144/3 15/18/38 11/14/37
