# This file uses centimeters as units for non-parametric coordinates.

mtllib MOD_BUSH_VO1.mtl
g default
v -6.279655 0.834410 -0.685927
v -7.093120 1.009601 -0.685927
v -7.990953 0.618258 0.418863
v -7.181036 0.834430 0.706307
v -5.912694 0.935911 0.714468
v -5.131354 0.843789 0.385569
v -4.969486 1.134137 -1.188061
v -7.291330 1.503280 -1.188061
v -8.754177 0.881098 -0.304291
v -7.291330 1.503280 1.188061
v -5.675777 1.551383 1.228487
v -4.394323 1.050679 0.002417
v -5.273732 1.993839 -1.265658
v -8.295006 2.039252 -0.940321
v -9.028355 1.665573 0.707687
v -7.663196 2.103924 1.379128
v -5.597615 1.942377 1.364954
v -4.449294 2.186282 0.390777
v -5.772802 2.464520 -1.188061
v -7.732509 2.508194 -0.956876
v -8.550934 2.829450 -0.383155
v -7.722253 2.508372 1.184398
v -5.772803 2.464520 1.188061
v -4.670709 2.640301 -0.249180
v -6.268586 2.812718 -0.685927
v -7.393689 2.876714 -0.685927
v -7.632161 3.324970 0.165409
v -7.393689 2.876714 0.685927
v -6.268586 2.812718 0.685927
v -5.199797 3.102280 0.172232
v -6.504291 0.681028 -0.015527
v -6.552313 3.378898 -0.137051
vt 0.000000 0.166667
vt 0.166667 0.166667
vt 0.333333 0.166667
vt 0.500000 0.166667
vt 0.666667 0.166667
vt 0.833333 0.166667
vt 1.000000 0.166667
vt 0.000000 0.333333
vt 0.166667 0.333333
vt 0.333333 0.333333
vt 0.500000 0.333333
vt 0.666667 0.333333
vt 0.833333 0.333333
vt 1.000000 0.333333
vt 0.000000 0.500000
vt 0.166667 0.500000
vt 0.333333 0.500000
vt 0.500000 0.500000
vt 0.666667 0.500000
vt 0.833333 0.500000
vt 1.000000 0.500000
vt 0.000000 0.666667
vt 0.166667 0.666667
vt 0.333333 0.666667
vt 0.500000 0.666667
vt 0.666667 0.666667
vt 0.833333 0.666667
vt 1.000000 0.666667
vt 0.000000 0.833333
vt 0.166667 0.833333
vt 0.333333 0.833333
vt 0.500000 0.833333
vt 0.666667 0.833333
vt 0.833333 0.833333
vt 1.000000 0.833333
vt 0.083333 0.000000
vt 0.250000 0.000000
vt 0.416667 0.000000
vt 0.583333 0.000000
vt 0.750000 0.000000
vt 0.916667 0.000000
vt 0.083333 1.000000
vt 0.250000 1.000000
vt 0.416667 1.000000
vt 0.583333 1.000000
vt 0.750000 1.000000
vt 0.916667 1.000000
vn -0.122918 -0.707995 -0.695439
vn -0.122918 -0.707995 -0.695439
vn -0.122918 -0.707995 -0.695439
vn -0.122918 -0.707995 -0.695439
vn -0.047326 -0.866105 -0.497617
vn -0.047326 -0.866105 -0.497617
vn -0.047326 -0.866105 -0.497617
vn -0.047326 -0.866105 -0.497617
vn -0.524258 -0.283471 0.802993
vn -0.524258 -0.283471 0.802993
vn -0.524258 -0.283471 0.802993
vn -0.524258 -0.283471 0.802993
vn 0.018538 -0.613770 0.789267
vn 0.018538 -0.613770 0.789267
vn 0.018538 -0.613770 0.789267
vn 0.018538 -0.613770 0.789267
vn 0.383760 -0.570100 0.726439
vn 0.383760 -0.570101 0.726439
vn 0.383760 -0.570100 0.726439
vn 0.383760 -0.570101 0.726439
vn 0.170567 -0.971972 -0.161792
vn 0.170567 -0.971972 -0.161792
vn 0.170567 -0.971972 -0.161792
vn 0.170567 -0.971972 -0.161792
vn -0.055244 0.069655 -0.996040
vn -0.055244 0.069655 -0.996040
vn -0.055244 0.069655 -0.996040
vn -0.055244 0.069655 -0.996040
vn -0.738408 -0.075270 -0.670140
vn -0.738408 -0.075270 -0.670140
vn -0.738408 -0.075270 -0.670140
vn -0.738408 -0.075270 -0.670140
vn -0.250577 -0.698798 0.669995
vn -0.250577 -0.698798 0.669995
vn -0.250577 -0.698798 0.669995
vn -0.250577 -0.698798 0.669995
vn -0.016561 -0.318007 0.947944
vn -0.016561 -0.318007 0.947944
vn -0.016561 -0.318007 0.947944
vn -0.016561 -0.318007 0.947944
vn 0.632826 -0.260313 0.729224
vn 0.632826 -0.260313 0.729224
vn 0.632826 -0.260313 0.729224
vn 0.632826 -0.260313 0.729224
vn 0.871002 0.224839 -0.436810
vn 0.871002 0.224839 -0.436810
vn 0.871002 0.224839 -0.436810
vn 0.871002 0.224839 -0.436810
vn -0.109484 0.071796 -0.991392
vn -0.109484 0.071796 -0.991392
vn -0.109484 0.071796 -0.991392
vn -0.109484 0.071796 -0.991392
vn -0.813818 0.134964 -0.565230
vn -0.813818 0.134964 -0.565230
vn -0.813818 0.134964 -0.565230
vn -0.813818 0.134964 -0.565230
vn -0.586199 0.601376 0.542879
vn -0.586199 0.601376 0.542879
vn -0.586199 0.601376 0.542879
vn -0.586199 0.601376 0.542879
vn 0.021704 0.376877 0.926009
vn 0.021704 0.376877 0.926009
vn 0.021704 0.376877 0.926009
vn 0.021704 0.376877 0.926009
vn 0.481584 0.669204 0.565900
vn 0.481584 0.669204 0.565900
vn 0.481584 0.669204 0.565900
vn 0.481584 0.669204 0.565900
vn 0.765297 0.230879 -0.600846
vn 0.765297 0.230879 -0.600846
vn 0.765297 0.230879 -0.600846
vn 0.765297 0.230879 -0.600846
vn -0.025648 0.730491 -0.682441
vn -0.025648 0.730491 -0.682441
vn -0.025648 0.730491 -0.682441
vn -0.025648 0.730491 -0.682441
vn -0.181400 0.802773 -0.568023
vn -0.181400 0.802773 -0.568023
vn -0.181400 0.802773 -0.568023
vn -0.181400 0.802773 -0.568023
vn -0.502499 0.695805 0.513177
vn -0.502499 0.695805 0.513177
vn -0.502499 0.695805 0.513177
vn -0.502499 0.695805 0.513177
vn 0.027896 0.814917 0.578906
vn 0.027896 0.814917 0.578906
vn 0.027896 0.814917 0.578906
vn 0.027896 0.814917 0.578906
vn 0.443433 0.624956 0.642492
vn 0.443433 0.624956 0.642492
vn 0.443433 0.624956 0.642492
vn 0.443433 0.624956 0.642492
vn 0.224740 0.842459 -0.489647
vn 0.224740 0.842459 -0.489647
vn 0.224740 0.842459 -0.489647
vn 0.224740 0.842459 -0.489647
vn -0.201976 -0.937839 -0.282247
vn -0.201976 -0.937839 -0.282247
vn -0.201976 -0.937839 -0.282247
vn -0.073901 -0.919615 -0.385807
vn -0.073901 -0.919615 -0.385807
vn -0.073901 -0.919615 -0.385807
vn 0.134494 -0.936092 0.325028
vn 0.134494 -0.936092 0.325028
vn 0.134494 -0.936092 0.325028
vn 0.074951 -0.958796 0.274029
vn 0.074951 -0.958796 0.274029
vn 0.074951 -0.958796 0.274029
vn 0.020571 -0.948978 0.314671
vn 0.020571 -0.948978 0.314671
vn 0.020571 -0.948978 0.314671
vn 0.164153 -0.972125 -0.167410
vn 0.164153 -0.972125 -0.167410
vn 0.164153 -0.972125 -0.167410
vn 0.040145 0.705788 -0.707285
vn 0.040145 0.705788 -0.707285
vn 0.040145 0.705788 -0.707285
vn -0.181710 0.848213 -0.497511
vn -0.181710 0.848213 -0.497511
vn -0.181710 0.848213 -0.497511
vn 0.132265 0.780245 0.611329
vn 0.132265 0.780245 0.611329
vn 0.132265 0.780245 0.611329
vn 0.047238 0.830474 0.555051
vn 0.047238 0.830474 0.555051
vn 0.047238 0.830474 0.555051
vn 0.042526 0.829904 0.556283
vn 0.042526 0.829904 0.556283
vn 0.042526 0.829904 0.556283
vn 0.290301 0.737091 -0.610264
vn 0.290301 0.737091 -0.610264
vn 0.290301 0.737091 -0.610264
s off
g Bush
usemtl initialShadingGroup
f 1/1/1 2/2/2 8/9/3 7/8/4
f 2/2/5 3/3/6 9/10/7 8/9/8
f 3/3/9 4/4/10 10/11/11 9/10/12
f 4/4/13 5/5/14 11/12/15 10/11/16
f 5/5/17 6/6/18 12/13/19 11/12/20
f 6/6/21 1/7/22 7/14/23 12/13/24
f 7/8/25 8/9/26 14/16/27 13/15/28
f 8/9/29 9/10/30 15/17/31 14/16/32
f 9/10/33 10/11/34 16/18/35 15/17/36
f 10/11/37 11/12/38 17/19/39 16/18/40
f 11/12/41 12/13/42 18/20/43 17/19/44
f 12/13/45 7/14/46 13/21/47 18/20/48
f 13/15/49 14/16/50 20/23/51 19/22/52
f 14/16/53 15/17/54 21/24/55 20/23/56
f 15/17/57 16/18/58 22/25/59 21/24/60
f 16/18/61 17/19/62 23/26/63 22/25/64
f 17/19/65 18/20/66 24/27/67 23/26/68
f 18/20/69 13/21/70 19/28/71 24/27/72
f 19/22/73 20/23/74 26/30/75 25/29/76
f 20/23/77 21/24/78 27/31/79 26/30/80
f 21/24/81 22/25/82 28/32/83 27/31/84
f 22/25/85 23/26/86 29/33/87 28/32/88
f 23/26/89 24/27/90 30/34/91 29/33/92
f 24/27/93 19/28/94 25/35/95 30/34/96
f 2/2/97 1/1/98 31/36/99
f 3/3/100 2/2/101 31/37/102
f 4/4/103 3/3/104 31/38/105
f 5/5/106 4/4/107 31/39/108
f 6/6/109 5/5/110 31/40/111
f 1/7/112 6/6/113 31/41/114
f 25/29/115 26/30/116 32/42/117
f 26/30/118 27/31/119 32/43/120
f 27/31/121 28/32/122 32/44/123
f 28/32/124 29/33/125 32/45/126
f 29/33/127 30/34/128 32/46/129
f 30/34/130 25/35/131 32/47/132
