# This file uses centimeters as units for non-parametric coordinates.

mtllib OBJ_FLAMA_02.mtl
g default
v -1.281361 2.292373 -0.778400
v -1.258560 2.291430 -0.778919
v -1.236202 2.291651 -0.779471
v -1.213856 2.291474 -0.778945
v -1.191043 2.292373 -0.778400
v -1.280918 2.291430 -0.805064
v -1.272294 2.265746 -0.789003
v -1.236202 2.262579 -0.788854
v -1.200303 2.268985 -0.789229
v -1.191509 2.291475 -0.805077
v -1.280445 2.291651 -0.831210
v -1.272426 2.262272 -0.831210
v -1.236202 2.255412 -0.831210
v -1.200015 2.263329 -0.831210
v -1.191960 2.291659 -0.831210
v -1.280918 2.291419 -0.857355
v -1.272352 2.264569 -0.873484
v -1.236202 2.262194 -0.873583
v -1.200059 2.264792 -0.873476
v -1.191487 2.291420 -0.857355
v -1.281361 2.292373 -0.884019
v -1.258560 2.291419 -0.883501
v -1.236202 2.291651 -0.882948
v -1.213844 2.291420 -0.883501
v -1.191043 2.292373 -0.884019
v -1.285707 2.315381 -0.775758
v -1.260120 2.315561 -0.775270
v -1.286124 2.315561 -0.803240
v -1.236202 2.315548 -0.775372
v -1.212294 2.315554 -0.775293
v -1.186903 2.320746 -0.775758
v -1.186505 2.320918 -0.803252
v -1.286036 2.315548 -0.831210
v -1.186573 2.320912 -0.831210
v -1.286124 2.315561 -0.859179
v -1.186486 2.320926 -0.859179
v -1.260120 2.315561 -0.887149
v -1.285707 2.315381 -0.886661
v -1.236202 2.315548 -0.887047
v -1.212284 2.315561 -0.887149
v -1.186903 2.320746 -0.886661
v -1.229463 2.445231 -0.828527
v -1.228316 2.445231 -0.828527
v -1.228342 2.445231 -0.829838
v -1.229515 2.445231 -0.829838
v -1.227169 2.445231 -0.828527
v -1.227169 2.445231 -0.829838
v -1.226022 2.445231 -0.828527
v -1.225996 2.445231 -0.829838
v -1.224876 2.445231 -0.828527
v -1.224876 2.445231 -0.829868
v -1.228342 2.445231 -0.831210
v -1.229463 2.445231 -0.831210
v -1.227169 2.445231 -0.831210
v -1.225996 2.445231 -0.831210
v -1.224876 2.445231 -0.831210
v -1.228342 2.445231 -0.832581
v -1.229463 2.445231 -0.832551
v -1.227169 2.445231 -0.832581
v -1.225996 2.445231 -0.832581
v -1.224876 2.445231 -0.832551
v -1.228316 2.445231 -0.833892
v -1.229463 2.445231 -0.833892
v -1.227169 2.445231 -0.833892
v -1.226022 2.445231 -0.833892
v -1.224876 2.445231 -0.833892
v -1.209755 2.373276 -0.831210
v -1.209755 2.373276 -0.811408
v -1.209755 2.373276 -0.791606
v -1.222515 2.375590 -0.791606
v -1.236202 2.375590 -0.791606
v -1.253135 2.375590 -0.791606
v -1.272618 2.375590 -0.791606
v -1.272618 2.375590 -0.811408
v -1.272618 2.375590 -0.831210
v -1.272618 2.375590 -0.851011
v -1.272618 2.375590 -0.870813
v -1.253135 2.375590 -0.870813
v -1.236202 2.375590 -0.870813
v -1.222515 2.375590 -0.870813
v -1.209755 2.373276 -0.870813
v -1.209755 2.373276 -0.851011
v -1.252001 2.415958 -0.831210
v -1.252001 2.415958 -0.841427
v -1.252001 2.415958 -0.851644
v -1.244939 2.415958 -0.851644
v -1.236202 2.415958 -0.851644
v -1.227465 2.415958 -0.851644
v -1.222437 2.415958 -0.851644
v -1.222437 2.415958 -0.841427
v -1.222437 2.415958 -0.831210
v -1.222437 2.415958 -0.820992
v -1.222437 2.415958 -0.810775
v -1.227465 2.415958 -0.810775
v -1.236202 2.415958 -0.810775
v -1.244939 2.415958 -0.810775
v -1.252001 2.415958 -0.810775
v -1.252081 2.415958 -0.820945
vt 0.066078 0.930785
vt 0.013125 0.848671
vt 0.000000 0.759732
vt 0.014012 0.671403
vt 0.066414 0.589297
vt 0.146711 0.985569
vt 0.233106 0.754523
vt 0.233116 0.752502
vt 0.233229 0.750372
vt 0.147534 0.538566
vt 0.235356 1.000000
vt 0.235360 0.754576
vt 0.235358 0.752531
vt 0.235353 0.750394
vt 0.235615 0.525684
vt 0.323985 0.985587
vt 0.237605 0.754544
vt 0.237595 0.752508
vt 0.237476 0.750359
vt 0.323703 0.538663
vt 0.404563 0.930823
vt 0.457510 0.848818
vt 0.470701 0.759988
vt 0.456909 0.671661
vt 0.404629 0.589584
vt 0.000000 0.297181
vt 0.058658 0.376503
vt 0.080192 0.288048
vt 0.039460 0.206684
vt 0.130368 0.438723
vt 0.180948 0.375058
vt 0.207471 0.492649
vt 0.286814 0.457935
vt 0.294823 0.534177
vt 0.371501 0.475199
vt 0.159750 0.181331
vt 0.095204 0.129758
vt 0.267197 0.268003
vt 0.374301 0.355390
vt 0.435754 0.406484
vt 0.247314 0.081740
vt 0.157775 0.057900
vt 0.353961 0.160681
vt 0.453310 0.248419
vt 0.493854 0.331112
vt 0.329705 0.039412
vt 0.238485 0.000000
vt 0.406210 0.096272
vt 0.477519 0.159434
vt 0.534729 0.240660
vt 0.096736 0.904645
vt 0.053554 0.837690
vt 0.157974 0.944130
vt 0.039773 0.759200
vt 0.055017 0.681671
vt 0.101536 0.621884
vt 0.160997 0.587637
vt 0.235317 0.959423
vt 0.235527 0.573912
vt 0.312659 0.944153
vt 0.310053 0.587771
vt 0.417065 0.837814
vt 0.373883 0.904703
vt 0.430923 0.759394
vt 0.415783 0.681880
vt 0.369411 0.622083
vt 0.231171 0.756265
vt 0.230912 0.754350
vt 0.233193 0.756579
vt 0.230906 0.752376
vt 0.231165 0.750426
vt 0.231349 0.748481
vt 0.233338 0.748163
vt 0.235356 0.756510
vt 0.235349 0.748236
vt 0.237471 0.756524
vt 0.237359 0.748160
vt 0.239799 0.754354
vt 0.239545 0.756275
vt 0.239800 0.752376
vt 0.239538 0.750424
vt 0.239349 0.748478
vt 0.235401 0.669096
vt 0.191962 0.674556
vt 0.151183 0.691617
vt 0.142032 0.722873
vt 0.137113 0.757096
vt 0.139574 0.799195
vt 0.155643 0.844257
vt 0.194287 0.858929
vt 0.235297 0.862932
vt 0.276309 0.858967
vt 0.314961 0.844320
vt 0.331071 0.799273
vt 0.333577 0.757184
vt 0.328697 0.722965
vt 0.319588 0.691710
vt 0.278832 0.674605
vt 0.235338 0.799893
vt 0.254017 0.798785
vt 0.272171 0.794150
vt 0.275274 0.779727
vt 0.276072 0.761257
vt 0.274523 0.742438
vt 0.271300 0.731906
vt 0.254186 0.724391
vt 0.235356 0.722255
vt 0.216525 0.724380
vt 0.199406 0.731883
vt 0.196178 0.742414
vt 0.194618 0.761231
vt 0.195403 0.779699
vt 0.198501 0.794118
vt 0.216567 0.798832
vn 0.000000 1.000000 0.000005
vn 0.000000 1.000000 0.000005
vn 0.000000 1.000000 0.000002
vn 0.000000 1.000000 0.000005
vn 0.000000 1.000000 0.000002
vn 0.000000 1.000000 -0.000000
vn 0.000000 1.000000 -0.000000
vn 0.000000 1.000000 -0.000000
vn 0.000000 1.000000 -0.000001
vn 0.000000 1.000000 -0.000000
vn 0.000000 1.000000 -0.000001
vn 0.000000 1.000000 -0.000003
vn 0.000000 1.000000 0.000000
vn 0.000000 1.000000 0.000000
vn 0.000000 1.000000 0.000000
vn 0.000000 1.000000 -0.000002
vn 0.000000 1.000000 -0.000005
vn 0.000000 1.000000 0.000000
vn 0.000000 1.000000 0.000000
vn 0.000000 1.000000 0.000000
vn 0.000000 1.000000 -0.000002
vn 0.000000 1.000000 0.000000
vn 0.000000 1.000000 -0.000002
vn 0.000000 1.000000 0.000000
vn 0.000000 1.000000 0.000001
vn -0.674967 -0.459651 0.577183
vn -0.935367 -0.331664 0.122830
vn -0.443222 -0.811341 0.381157
vn -0.163013 -0.379856 0.910569
vn 0.026882 -0.881751 0.470949
vn 0.011811 -0.340350 0.940225
vn 0.452717 -0.805909 0.381521
vn 0.164585 -0.399354 0.901903
vn 0.926195 -0.356675 0.122254
vn 0.651190 -0.515624 0.556851
vn -0.958665 -0.284523 0.002932
vn -0.531196 -0.847211 0.007983
vn 0.019146 -0.999652 0.018140
vn 0.534977 -0.844514 0.024398
vn 0.954244 -0.298814 0.011353
vn -0.937506 -0.325556 -0.122868
vn -0.442477 -0.813333 -0.377760
vn 0.006909 -0.882880 -0.469547
vn 0.444121 -0.815308 -0.371524
vn 0.935127 -0.333049 -0.120895
vn -0.681806 -0.441832 -0.583031
vn -0.164123 -0.370501 -0.914217
vn 0.000701 -0.324959 -0.945728
vn 0.163982 -0.371670 -0.913768
vn 0.680626 -0.444970 -0.582023
vn -0.001450 -0.132448 0.991189
vn 0.007076 -0.146376 0.989204
vn 0.006084 -0.144757 0.989449
vn -0.001450 -0.132448 0.991189
vn -0.977759 -0.209677 -0.004828
vn -0.980036 -0.198806 0.002319
vn -0.980036 -0.198806 0.002319
vn -0.978021 -0.208465 -0.004030
vn 0.000603 -0.158906 0.987294
vn 0.000600 -0.158906 0.987293
vn -0.000126 -0.140081 0.990140
vn 0.002098 -0.136922 0.990580
vn 0.013575 -0.120583 0.992610
vn 0.013575 -0.120583 0.992610
vn 0.987712 -0.156284 0.000838
vn 0.986158 -0.165737 -0.004947
vn 0.986311 -0.164840 -0.004397
vn 0.987712 -0.156284 0.000838
vn -0.975745 -0.218912 0.000026
vn -0.975745 -0.218912 0.000025
vn 0.984766 -0.173885 0.000470
vn 0.984766 -0.173885 0.000466
vn -0.977769 -0.209629 0.004834
vn -0.978031 -0.208418 0.004031
vn 0.986191 -0.165537 0.005014
vn 0.986343 -0.164647 0.004374
vn 0.007082 -0.146342 -0.989209
vn -0.001482 -0.132419 -0.991193
vn -0.001482 -0.132419 -0.991193
vn 0.006086 -0.144724 -0.989453
vn -0.980045 -0.198762 -0.002361
vn -0.980045 -0.198762 -0.002361
vn 0.000004 -0.158733 -0.987322
vn 0.000003 -0.158733 -0.987322
vn -0.000185 -0.139890 -0.990167
vn 0.002227 -0.136754 -0.990603
vn 0.987734 -0.156137 -0.001742
vn 0.987734 -0.156137 -0.001742
vn 0.014706 -0.120496 -0.992605
vn 0.014706 -0.120495 -0.992605
vn -0.011480 0.260342 0.965448
vn -0.005527 0.260909 0.965348
vn -0.002885 0.313395 0.949619
vn -0.009360 0.292543 0.956207
vn -0.975900 0.218174 0.004329
vn -0.975959 0.217749 0.009431
vn -0.962394 0.271541 0.007924
vn -0.955424 0.295227 0.002314
vn 0.000309 0.261555 0.965189
vn 0.000215 0.313801 0.949489
vn -0.005763 0.267380 0.963574
vn 0.004856 0.314318 0.949305
vn -0.008832 0.272306 0.962170
vn 0.000735 0.296013 0.955183
vn 0.914664 0.404111 0.009151
vn 0.914473 0.404622 0.004406
vn 0.930642 0.365925 0.002250
vn 0.925864 0.377790 0.007100
vn -0.975796 0.218681 0.000000
vn -0.955402 0.295308 -0.000382
vn 0.914184 0.405300 0.000221
vn 0.930447 0.366427 0.000149
vn -0.975900 0.218174 -0.004329
vn -0.955374 0.295392 -0.002202
vn 0.914383 0.404826 -0.004452
vn 0.930590 0.366057 -0.002219
vn -0.005527 0.260909 -0.965348
vn -0.011480 0.260342 -0.965448
vn -0.009360 0.292543 -0.956207
vn -0.002885 0.313395 -0.949619
vn -0.975959 0.217749 -0.009431
vn -0.962377 0.271616 -0.007388
vn 0.000000 0.261620 -0.965171
vn 0.000000 0.313841 -0.949475
vn -0.005724 0.267640 -0.963502
vn 0.004753 0.314474 -0.949254
vn 0.914547 0.404365 -0.009600
vn 0.925782 0.377985 -0.007449
vn -0.008227 0.272670 -0.962072
vn 0.001253 0.296326 -0.955086
vn 0.969577 0.244787 0.000000
vn 0.969577 0.244787 -0.000000
vn 0.964457 0.264238 -0.000000
vn 0.046331 0.443878 0.894889
vn 0.016929 0.450217 0.892759
vn 0.000000 0.450827 0.892611
vn 0.000000 0.447646 0.894211
vn 0.000000 0.436832 0.899543
vn -0.877614 0.479355 0.003414
vn -0.869933 0.493169 0.000072
vn -0.869917 0.493194 -0.002010
vn -0.869782 0.493436 0.000000
vn -0.877933 0.478784 0.000000
vn 0.000000 0.436832 -0.899543
vn 0.000000 0.447646 -0.894211
vn 0.000000 0.450827 -0.892611
vn 0.016929 0.450217 -0.892759
vn 0.046332 0.443878 -0.894889
vn 0.964457 0.264239 0.000000
vn 0.969577 0.244787 0.000000
vn -0.792594 0.609733 -0.004498
vn -0.792366 0.610047 0.000000
vn -0.792366 0.610047 0.000000
vn 0.000000 0.518539 -0.855054
vn 0.000000 0.518540 -0.855054
vn 0.000000 0.518540 -0.855054
vn -0.000000 0.518540 -0.855053
vn -0.000000 0.518540 -0.855053
vn 0.996548 0.083018 0.000000
vn 0.996548 0.083018 0.000000
vn 0.996548 0.083018 0.000000
vn 0.996548 0.083018 0.000000
vn 0.996548 0.083018 0.000000
vn -0.000000 0.518540 0.855054
vn -0.000000 0.518540 0.855054
vn 0.000000 0.518540 0.855054
vn 0.000000 0.518539 0.855054
vn 0.000000 0.518539 0.855054
vn -0.790125 0.612878 0.009156
vn -0.791711 0.610894 -0.001381
s 1
g fuego2 vela2
usemtl lambert9SG
f 42/67/1 43/68/2 44/7/3 45/69/4
f 43/68/2 46/70/5 47/8/6 44/7/3
f 46/70/5 48/71/7 49/9/8 47/8/6
f 48/71/7 50/72/9 51/73/10 49/9/8
f 45/69/4 44/7/3 52/12/11 53/74/12
f 44/7/3 47/8/6 54/13/13 52/12/11
f 47/8/6 49/9/8 55/14/14 54/13/13
f 49/9/8 51/73/10 56/75/15 55/14/14
f 53/74/12 52/12/11 57/17/16 58/76/17
f 52/12/11 54/13/13 59/18/18 57/17/16
f 54/13/13 55/14/14 60/19/19 59/18/18
f 55/14/14 56/75/15 61/77/20 60/19/19
f 58/76/17 57/17/16 62/78/21 63/79/22
f 57/17/16 59/18/18 64/80/23 62/78/21
f 59/18/18 60/19/19 65/81/24 64/80/23
f 60/19/19 61/77/20 66/82/25 65/81/24
s 2
f 1/26/26 6/29/27 7/28/28 2/27/29
f 2/27/29 7/28/28 8/31/30 3/30/31
f 3/30/31 8/31/30 9/33/32 4/32/33
f 4/32/33 9/33/32 10/35/34 5/34/35
f 6/29/27 11/37/36 12/36/37 7/28/28
f 7/28/28 12/36/37 13/38/38 8/31/30
f 8/31/30 13/38/38 14/39/39 9/33/32
f 9/33/32 14/39/39 15/40/40 10/35/34
f 11/37/36 16/42/41 17/41/42 12/36/37
f 12/36/37 17/41/42 18/43/43 13/38/38
f 13/38/38 18/43/43 19/44/44 14/39/39
f 14/39/39 19/44/44 20/45/45 15/40/40
f 16/42/41 21/47/46 22/46/47 17/41/42
f 17/41/42 22/46/47 23/48/48 18/43/43
f 18/43/43 23/48/48 24/49/49 19/44/44
f 19/44/44 24/49/49 25/50/50 20/45/45
s 3
f 1/1/51 2/2/52 27/52/53 26/51/54
s 4
f 6/6/55 1/1/56 26/51/57 28/53/58
s 3
f 2/2/52 3/3/59 29/54/60 27/52/53
f 3/3/59 4/4/61 30/55/62 29/54/60
f 4/4/61 5/5/63 31/56/64 30/55/62
s 5
f 5/5/65 10/10/66 32/57/67 31/56/68
s 4
f 11/11/69 6/6/55 28/53/58 33/58/70
s 5
f 10/10/66 15/15/71 34/59/72 32/57/67
s 4
f 16/16/73 11/11/69 33/58/70 35/60/74
s 5
f 15/15/71 20/20/75 36/61/76 34/59/72
s 6
f 22/22/77 21/21/78 38/63/79 37/62/80
s 4
f 21/21/81 16/16/73 35/60/74 38/63/82
s 6
f 23/23/83 22/22/77 37/62/80 39/64/84
f 24/24/85 23/23/83 39/64/84 40/65/86
s 5
f 20/20/75 25/25/87 41/66/88 36/61/76
s 6
f 25/25/89 24/24/85 40/65/86 41/66/90
s 7
f 26/51/91 27/52/92 72/88/93 73/89/94
s 8
f 28/53/95 26/51/96 73/89/97 74/90/98
s 7
f 27/52/92 29/54/99 71/87/100 72/88/93
f 29/54/99 30/55/101 70/86/102 71/87/100
f 30/55/101 31/56/103 69/85/104 70/86/102
s 9
f 31/56/105 32/57/106 68/84/107 69/85/108
s 8
f 33/58/109 28/53/95 74/90/98 75/91/110
s 9
f 32/57/106 34/59/111 67/83/112 68/84/107
s 8
f 35/60/113 33/58/109 75/91/110 76/92/114
s 9
f 34/59/111 36/61/115 82/98/116 67/83/112
s 10
f 37/62/117 38/63/118 77/93/119 78/94/120
s 8
f 38/63/121 35/60/113 76/92/114 77/93/122
s 10
f 39/64/123 37/62/117 78/94/120 79/95/124
f 40/65/125 39/64/123 79/95/124 80/96/126
s 9
f 36/61/115 41/66/127 81/97/128 82/98/116
s 10
f 41/66/129 40/65/125 80/96/126 81/97/130
s 9
f 68/84/107 67/83/112 91/107/131 92/108/132
f 69/85/108 68/84/107 92/108/132 93/109/133
s 7
f 70/86/102 69/85/104 93/109/134 94/110/135
f 71/87/100 70/86/102 94/110/135 95/111/136
f 72/88/93 71/87/100 95/111/136 96/112/137
f 73/89/94 72/88/93 96/112/137 97/113/138
s 8
f 74/90/98 73/89/97 97/113/139 98/114/140
f 75/91/110 74/90/98 98/114/140 83/99/141
f 76/92/114 75/91/110 83/99/141 84/100/142
f 77/93/122 76/92/114 84/100/142 85/101/143
s 10
f 78/94/120 77/93/119 85/101/144 86/102/145
f 79/95/124 78/94/120 86/102/145 87/103/146
f 80/96/126 79/95/124 87/103/146 88/104/147
f 81/97/130 80/96/126 88/104/147 89/105/148
s 9
f 82/98/116 81/97/128 89/105/149 90/106/150
f 67/83/112 82/98/116 90/106/150 91/107/131
s 8
f 84/100/142 83/99/141 53/74/151 58/76/152
f 85/101/143 84/100/142 58/76/152 63/79/153
s 10
f 86/102/145 85/101/144 63/79/154 62/78/155
f 87/103/146 86/102/145 62/78/155 64/80/156
f 88/104/147 87/103/146 64/80/156 65/81/157
f 89/105/148 88/104/147 65/81/157 66/82/158
s 9
f 90/106/150 89/105/149 66/82/159 61/77/160
f 91/107/131 90/106/150 61/77/160 56/75/161
f 92/108/132 91/107/131 56/75/161 51/73/162
f 93/109/133 92/108/132 51/73/162 50/72/163
s 7
f 94/110/135 93/109/134 50/72/164 48/71/165
f 95/111/136 94/110/135 48/71/165 46/70/166
f 96/112/137 95/111/136 46/70/166 43/68/167
f 97/113/138 96/112/137 43/68/167 42/67/168
s 8
f 98/114/140 97/113/139 42/67/169 45/69/170
f 83/99/141 98/114/140 45/69/170 53/74/151
