# This file uses centimeters as units for non-parametric coordinates.

mtllib OBJ_INCIENSO_01.mtl
g default
v -1.493000 0.105877 -6.093119
v -1.524531 0.133563 -6.088386
v -1.527277 0.156609 -6.053108
v -1.498491 0.151968 -6.022564
v -1.466959 0.124282 -6.027297
v -1.464214 0.101236 -6.062574
v 0.903678 3.150346 -7.880783
v 0.881293 3.170002 -7.877423
v 0.879344 3.186362 -7.852378
v 0.899780 3.183067 -7.830695
v 0.922164 3.163412 -7.834055
v 0.924114 3.147052 -7.859098
v -1.495745 0.128922 -6.057841
v 0.822188 3.133563 -7.815003
v 0.824934 3.110517 -7.850281
v 0.856465 3.082830 -7.855014
v 0.885251 3.078190 -7.824469
v 0.882506 3.101235 -7.789191
v 0.850974 3.128922 -7.784458
v -1.489615 0.204329 -6.081352
v -1.486869 0.181284 -6.116629
v -1.455338 0.153597 -6.121362
v -1.426552 0.148957 -6.090818
v -1.429297 0.172002 -6.055540
v -1.460828 0.199689 -6.050807
v 0.834944 3.142960 -7.822677
v 0.837415 3.122219 -7.854427
v 0.863749 3.179459 -7.844278
v 0.866220 3.158718 -7.876028
v 0.865793 3.097301 -7.858687
v 0.894598 3.133800 -7.880288
v 0.891700 3.093125 -7.831196
v 0.920505 3.129623 -7.852798
v 0.889229 3.113866 -7.799446
v 0.918035 3.150364 -7.821048
v 0.860851 3.138784 -7.795187
v 0.889656 3.175282 -7.816788
v 0.825675 3.144406 -7.819414
v 0.828681 3.119171 -7.858043
v 0.860721 3.188812 -7.845695
v 0.863727 3.163577 -7.884324
v 0.863208 3.088854 -7.863226
v 0.898254 3.133260 -7.889508
v 0.894729 3.083772 -7.829779
v 0.929775 3.128178 -7.856061
v 0.891722 3.109007 -7.791150
v 0.926768 3.153413 -7.817432
v 0.857195 3.139324 -7.785968
v 0.892241 3.183730 -7.812249
v 0.916584 3.172663 -7.882994
v 0.901288 3.186094 -7.880698
v 0.899956 3.197274 -7.863584
v 0.913921 3.195022 -7.848767
v 0.929217 3.181591 -7.851063
v 0.930549 3.170412 -7.868176
v 0.968598 3.240627 -7.919421
v 0.955749 3.251909 -7.917493
v 0.967479 3.250018 -7.905046
v 0.954631 3.261300 -7.903117
v 0.966361 3.259409 -7.890671
v 0.979209 3.248127 -7.892600
v 0.980328 3.238736 -7.906974
vt 0.578125 0.020934
vt 0.421875 0.020934
vt 0.343750 0.156250
vt 0.421875 0.291566
vt 0.578125 0.291566
vt 0.656250 0.156250
vt 0.375000 0.312500
vt 0.416667 0.312500
vt 0.458333 0.312500
vt 0.500000 0.312500
vt 0.541667 0.312500
vt 0.583333 0.312500
vt 0.625000 0.312500
vt 0.375000 0.688440
vt 0.416667 0.688440
vt 0.458333 0.688440
vt 0.500000 0.688440
vt 0.541667 0.688440
vt 0.583333 0.688440
vt 0.625000 0.688440
vt 0.578125 0.708434
vt 0.421875 0.708434
vt 0.343750 0.843750
vt 0.421875 0.979066
vt 0.578125 0.979066
vt 0.656250 0.843750
vt 0.500000 0.150000
vt 0.500000 0.837500
vt 0.458333 0.680912
vt 0.416667 0.680912
vt 0.625000 0.680912
vt 0.375000 0.680912
vt 0.583333 0.680912
vt 0.541667 0.680912
vt 0.500000 0.680912
vt 0.458333 0.318406
vt 0.416667 0.318406
vt 0.625000 0.318406
vt 0.375000 0.318406
vt 0.583333 0.318406
vt 0.541667 0.318406
vt 0.500000 0.318406
vt 0.416667 0.680912
vt 0.458333 0.680912
vt 0.458333 0.688440
vt 0.416667 0.688440
vt 0.375000 0.680912
vt 0.375000 0.688440
vt 0.583333 0.680912
vt 0.625000 0.680912
vt 0.625000 0.688440
vt 0.583333 0.688440
vt 0.541667 0.680912
vt 0.541667 0.688440
vt 0.500000 0.680912
vt 0.500000 0.688440
vt 0.416667 0.680912
vt 0.458333 0.680912
vt 0.458333 0.688440
vt 0.416667 0.688440
vt 0.375000 0.680912
vt 0.375000 0.688440
vt 0.583333 0.680912
vt 0.625000 0.680912
vt 0.625000 0.688440
vt 0.583333 0.688440
vt 0.541667 0.680912
vt 0.541667 0.688440
vt 0.500000 0.680912
vt 0.500000 0.688440
vt 0.578125 0.979066
vt 0.421875 0.979066
vt 0.343750 0.843750
vt 0.421875 0.708434
vt 0.578125 0.708434
vt 0.656250 0.843750
vt 0.578125 0.979066
vt 0.421875 0.979066
vt 0.343750 0.843750
vt 0.421875 0.708434
vt 0.578125 0.708434
vt 0.656250 0.843750
vn -0.356040 -0.251639 -0.899952
vn -0.356040 -0.251639 -0.899952
vn -0.356040 -0.251639 -0.899952
vn -0.356040 -0.251639 -0.899952
vn -0.824683 0.441986 -0.352911
vn -0.824683 0.441986 -0.352911
vn -0.824683 0.441986 -0.352911
vn -0.824683 0.441986 -0.352911
vn -0.468642 0.693626 0.547045
vn -0.468642 0.693626 0.547045
vn -0.468642 0.693626 0.547045
vn -0.468642 0.693626 0.547045
vn 0.356040 0.251639 0.899952
vn 0.356040 0.251639 0.899952
vn 0.356040 0.251639 0.899952
vn 0.356040 0.251639 0.899952
vn 0.824683 -0.441986 0.352911
vn 0.824683 -0.441986 0.352911
vn 0.824683 -0.441986 0.352911
vn 0.824683 -0.441986 0.352911
vn 0.468642 -0.693626 -0.547045
vn 0.468642 -0.693626 -0.547045
vn 0.468642 -0.693626 -0.547045
vn 0.468642 -0.693626 -0.547045
vn -0.561847 -0.711903 0.421333
vn -0.561847 -0.711903 0.421333
vn -0.561846 -0.711902 0.421336
vn -0.561846 -0.711902 0.421336
vn -0.561845 -0.711902 0.421339
vn -0.561845 -0.711902 0.421339
vn -0.561846 -0.711902 0.421336
vn 0.561844 0.711919 -0.421311
vn 0.561867 0.711899 -0.421314
vn 0.561845 0.711902 -0.421339
vn 0.561868 0.711883 -0.421339
vn 0.561844 0.711884 -0.421370
vn 0.561822 0.711903 -0.421367
vn 0.561824 0.711922 -0.421332
vn -0.824683 0.441982 -0.352916
vn -0.824683 0.441982 -0.352916
vn -0.824683 0.441982 -0.352916
vn -0.824683 0.441982 -0.352916
vn -0.356055 -0.251625 -0.899950
vn -0.356055 -0.251625 -0.899950
vn -0.356055 -0.251625 -0.899950
vn -0.356055 -0.251625 -0.899950
vn 0.468645 -0.693627 -0.547042
vn 0.468645 -0.693627 -0.547042
vn 0.468645 -0.693627 -0.547042
vn 0.468645 -0.693627 -0.547042
vn 0.824683 -0.441985 0.352912
vn 0.824683 -0.441985 0.352912
vn 0.824683 -0.441985 0.352912
vn 0.824683 -0.441985 0.352912
vn 0.356040 0.251639 0.899952
vn 0.356040 0.251639 0.899952
vn 0.356040 0.251639 0.899952
vn 0.356040 0.251639 0.899952
vn -0.468641 0.693626 0.547045
vn -0.468641 0.693626 0.547045
vn -0.468641 0.693626 0.547045
vn -0.468641 0.693626 0.547045
vn -0.824367 0.442386 -0.353148
vn -0.824367 0.442386 -0.353148
vn -0.355724 -0.251239 -0.900189
vn -0.355724 -0.251239 -0.900189
vn 0.468958 -0.693226 -0.547281
vn 0.468958 -0.693226 -0.547281
vn 0.824999 -0.441585 0.352674
vn 0.824999 -0.441585 0.352674
vn 0.356356 0.252039 0.899715
vn 0.356356 0.252039 0.899715
vn -0.468326 0.694026 0.546808
vn -0.468326 0.694026 0.546808
vn -0.688860 0.581165 -0.433266
vn -0.688860 0.581165 -0.433266
vn -0.568212 0.667967 -0.480578
vn -0.568213 0.667966 -0.480578
vn -0.552220 0.677637 -0.485655
vn -0.552220 0.677637 -0.485655
vn -0.230602 -0.097103 -0.968191
vn -0.230602 -0.097103 -0.968191
vn -0.130775 0.020518 -0.991200
vn -0.130775 0.020518 -0.991200
vn -0.118121 0.035135 -0.992377
vn -0.118121 0.035135 -0.992377
vn 0.575829 -0.529313 -0.623096
vn 0.575829 -0.529313 -0.623096
vn 0.639017 -0.392040 -0.661786
vn 0.639018 -0.392040 -0.661786
vn 0.645798 -0.374276 -0.665479
vn 0.645798 -0.374276 -0.665479
vn 0.923991 -0.283241 0.256935
vn 0.923991 -0.283241 0.256935
vn 0.971355 -0.157145 0.178257
vn 0.971355 -0.157146 0.178257
vn 0.975599 -0.141175 0.168153
vn 0.975600 -0.141175 0.168153
vn 0.465720 0.395029 0.791869
vn 0.465720 0.395029 0.791869
vn 0.533915 0.490303 0.688867
vn 0.533915 0.490303 0.688867
vn 0.541501 0.501336 0.674863
vn 0.541501 0.501336 0.674863
vn -0.340702 0.827233 0.446775
vn -0.340702 0.827233 0.446775
vn -0.235861 0.902858 0.359467
vn -0.235861 0.902858 0.359467
vn -0.222404 0.910739 0.347980
vn -0.222404 0.910739 0.347980
vn -0.084616 -0.651656 0.753781
vn -0.048265 -0.956821 0.286643
vn -0.048266 -0.956821 0.286642
vn -0.084614 -0.651659 0.753778
vn 0.883348 0.223549 -0.411974
vn 0.846993 0.528731 0.055194
vn 0.846995 0.528728 0.055192
vn 0.883348 0.223549 -0.411975
vn -0.502153 -0.285046 0.816450
vn -0.502155 -0.285045 0.816450
vn 0.429436 0.895373 0.117863
vn 0.429434 0.895374 0.117862
vn -0.883330 -0.223587 0.411991
vn -0.883330 -0.223587 0.411992
vn 0.048230 0.956829 -0.286621
vn 0.048231 0.956830 -0.286620
vn -0.846981 -0.528753 -0.055163
vn -0.846985 -0.528748 -0.055159
vn 0.084578 0.651638 -0.753800
vn 0.084574 0.651644 -0.753796
vn -0.429449 -0.895370 -0.117841
vn -0.429442 -0.895374 -0.117838
vn 0.502135 0.284998 -0.816478
vn 0.502142 0.284994 -0.816475
vn -0.267056 -0.141180 -0.953284
vn -0.267056 -0.141180 -0.953283
vn -0.730316 0.544488 -0.412517
vn -0.730316 0.544488 -0.412517
vn -0.378355 0.793233 0.477105
vn -0.378354 0.793234 0.477104
vn 0.436850 0.356323 0.825952
vn 0.436850 0.356323 0.825952
vn 0.900112 -0.329331 0.285201
vn 0.900111 -0.329332 0.285201
vn 0.548165 -0.578090 -0.604422
vn 0.548166 -0.578090 -0.604422
vn -0.338723 -0.229791 -0.912394
vn -0.338723 -0.229791 -0.912394
vn -0.807149 0.463517 -0.365598
vn -0.807149 0.463517 -0.365598
vn -0.451265 0.715033 0.533936
vn -0.451265 0.715033 0.533936
vn 0.373024 0.273253 0.886671
vn 0.373024 0.273253 0.886671
vn 0.841449 -0.420042 0.339895
vn 0.841449 -0.420042 0.339895
vn 0.485582 -0.671573 -0.559642
vn 0.485582 -0.671573 -0.559642
s 1
g insienso3 insienso
usemtl initialShadingGroup
f 1/7/1 2/8/2 21/37/3 22/39/4
s 2
f 2/8/5 3/9/6 20/36/7 21/37/8
s 3
f 3/9/9 4/10/10 25/42/11 20/36/12
s 4
f 4/10/13 5/11/14 24/41/15 25/42/16
s 5
f 5/11/17 6/12/18 23/40/19 24/41/20
s 6
f 6/12/21 1/13/22 22/38/23 23/40/24
s 7
f 2/2/25 1/1/26 13/27/27
f 3/3/28 2/2/25 13/27/27
f 4/4/29 3/3/28 13/27/27
f 5/5/30 4/4/29 13/27/27
f 6/6/31 5/5/30 13/27/27
f 1/1/26 6/6/31 13/27/27
s 8
f 56/77/32 57/78/33 58/28/34
f 57/78/33 59/79/35 58/28/34
f 59/79/35 60/80/36 58/28/34
f 60/80/36 61/81/37 58/28/34
f 61/81/37 62/82/38 58/28/34
f 62/82/38 56/77/32 58/28/34
s off
f 39/57/39 38/58/40 40/59/41 41/60/42
f 42/61/43 39/57/44 41/60/45 43/62/46
f 44/63/47 42/64/48 43/65/49 45/66/50
f 46/67/51 44/63/52 45/66/53 47/68/54
f 48/69/55 46/67/56 47/68/57 49/70/58
f 38/58/59 48/69/60 49/70/61 40/59/62
s 2
f 21/37/8 20/36/7 14/29/63 15/30/64
s 1
f 22/39/4 21/37/3 15/30/65 16/32/66
s 6
f 23/40/24 22/38/23 16/31/67 17/33/68
s 5
f 24/41/20 23/40/19 17/33/69 18/34/70
s 4
f 25/42/16 24/41/15 18/34/71 19/35/72
s 3
f 20/36/12 25/42/11 19/35/73 14/29/74
s 2
f 15/30/64 14/29/63 26/44/75 27/43/76
s 9
f 9/16/77 8/15/78 29/46/79 28/45/80
s 1
f 16/32/66 15/30/65 27/43/81 30/47/82
s 10
f 8/15/83 7/14/84 31/48/85 29/46/86
s 6
f 17/33/68 16/31/67 30/50/87 32/49/88
s 11
f 7/20/89 12/19/90 33/52/91 31/51/92
s 5
f 18/34/70 17/33/69 32/49/93 34/53/94
s 12
f 12/19/95 11/18/96 35/54/97 33/52/98
s 4
f 19/35/72 18/34/71 34/53/99 36/55/100
s 13
f 11/18/101 10/17/102 37/56/103 35/54/104
s 3
f 14/29/74 19/35/73 36/55/105 26/44/106
s 14
f 10/17/107 9/16/108 28/45/109 37/56/110
s 15
f 27/43/111 26/44/112 38/58/113 39/57/114
s 16
f 28/45/115 29/46/116 41/60/117 40/59/118
s 15
f 30/47/119 27/43/111 39/57/114 42/61/120
s 16
f 29/46/116 31/48/121 43/62/122 41/60/117
s 15
f 32/49/123 30/50/119 42/64/120 44/63/124
s 16
f 31/51/121 33/52/125 45/66/126 43/65/122
s 15
f 34/53/127 32/49/123 44/63/124 46/67/128
s 16
f 33/52/125 35/54/129 47/68/130 45/66/126
s 15
f 36/55/131 34/53/127 46/67/128 48/69/132
s 16
f 35/54/129 37/56/133 49/70/134 47/68/130
s 15
f 26/44/112 36/55/131 48/69/132 38/58/113
s 16
f 37/56/133 28/45/115 40/59/118 49/70/134
s 10
f 7/25/84 8/24/83 51/72/135 50/71/136
s 9
f 8/24/78 9/23/77 52/73/137 51/72/138
s 14
f 9/23/108 10/22/107 53/74/139 52/73/140
s 13
f 10/22/102 11/21/101 54/75/141 53/74/142
s 12
f 11/21/96 12/26/95 55/76/143 54/75/144
s 11
f 12/26/90 7/25/89 50/71/145 55/76/146
s 10
f 50/71/136 51/72/135 57/78/147 56/77/148
s 9
f 51/72/138 52/73/137 59/79/149 57/78/150
s 14
f 52/73/140 53/74/139 60/80/151 59/79/152
s 13
f 53/74/142 54/75/141 61/81/153 60/80/154
s 12
f 54/75/144 55/76/143 62/82/155 61/81/156
s 11
f 55/76/146 50/71/145 56/77/157 62/82/158
