# This file uses centimeters as units for non-parametric coordinates.

mtllib OBJ_TRONCOMEDIO_01.mtl
g default
v 0.515923 9.163144 -0.000169
v -12.615600 9.176192 -8.061044
v -14.767819 9.176192 -2.053354
v 15.744081 9.176192 -1.142563
v 13.954027 9.176192 -7.267926
v 9.827331 9.176192 -12.135651
v 4.077521 9.176192 -14.904058
v -2.301196 9.176192 -15.094459
v -8.205898 9.176192 -12.673945
v -14.290426 9.176192 4.310326
v -11.265964 9.176192 9.929667
v -6.217389 9.176192 13.833025
v -0.017642 9.176192 15.345484
v 6.261278 9.176192 14.205526
v 11.533694 9.176192 10.610253
v 14.887952 9.176192 5.181315
vt 0.398043 0.863341
vt 0.500854 0.848747
vt 0.415673 0.902937
vt 0.595223 0.884065
vt 0.604234 0.841669
vt 0.532210 0.940802
vt 0.569746 0.919131
vt 0.447883 0.931939
vt 0.489105 0.945333
vt 0.398043 0.819998
vt 0.415673 0.780402
vt 0.447883 0.751400
vt 0.532210 0.742537
vt 0.489105 0.738006
vt 0.595223 0.799273
vt 0.569746 0.764208
vn 0.000815 1.000000 0.000292
vn 0.000720 1.000000 0.000445
vn 0.000721 1.000000 0.000445
vn -0.000838 1.000000 0.000245
vn -0.000852 1.000000 0.000064
vn -0.000852 1.000000 0.000064
vn -0.000378 1.000000 0.000785
vn -0.000522 1.000000 0.000675
vn -0.000521 1.000000 0.000675
vn 0.000329 1.000000 0.000803
vn 0.000152 1.000000 0.000836
vn 0.000152 1.000000 0.000836
vn 0.000718 1.000000 -0.000387
vn 0.000812 1.000000 -0.000237
vn 0.000646 1.000000 -0.000547
vn 0.000530 1.000000 -0.000685
vn -0.000155 1.000000 -0.000856
vn 0.000025 1.000000 -0.000849
vn 0.000026 1.000000 -0.000849
vn -0.000742 1.000000 -0.000459
vn -0.000617 1.000000 -0.000589
vn -0.000616 1.000000 -0.000590
vn 0.000626 1.000000 0.000599
vn -0.000026 1.000000 0.000869
vn -0.000666 1.000000 0.000564
vn -0.000866 1.000000 -0.000117
vn -0.000491 1.000000 -0.000720
vn 0.000206 1.000000 -0.000843
vn 0.000862 1.000000 -0.000065
s 1
g polySurface2 tronco_templo
usemtl initialShadingGroup
f 3/1/1 1/2/2 2/3/3
s 2
f 5/4/4 1/2/5 4/5/6
s 3
f 7/6/7 1/2/8 6/7/9
s 4
f 9/8/10 1/2/11 8/9/12
s 5
f 1/2/13 10/10/14 11/11/15
f 12/12/16 1/2/13 11/11/15
s 6
f 14/13/17 1/2/18 13/14/19
s 7
f 16/15/20 1/2/21 15/16/22
s 1
f 1/2/2 9/8/23 2/3/3
s 4
f 1/2/11 7/6/24 8/9/12
s 3
f 1/2/8 5/4/25 6/7/9
s 2
f 1/2/5 16/15/26 4/5/6
s 7
f 1/2/21 14/13/27 15/16/22
s 6
f 1/2/18 12/12/28 13/14/19
s 5
f 1/2/13 3/1/29 10/10/14
