# This file uses centimeters as units for non-parametric coordinates.

mtllib MOD_PUENTE_BARANDAL_PISO_01.mtl
g default
v 4.074667 8.570097 21.523027
v 5.969375 8.570097 21.523027
v 4.074667 9.087777 21.523027
v 5.969375 9.087777 21.523027
v 4.074667 8.994046 17.900805
v 5.969375 8.994046 17.900805
v 4.074667 8.476366 17.900805
v 5.969375 8.476366 17.900805
v 4.074667 9.246228 27.116234
v 5.969375 9.246228 27.116234
v 5.969375 9.763908 27.116234
v 4.074667 9.763908 27.116234
v 4.074667 10.118988 33.526119
v 5.969375 10.118988 33.526119
v 5.969375 10.636668 33.526119
v 4.074667 10.636668 33.526119
v 4.074667 11.488953 43.031754
v 5.969375 11.488953 43.031754
v 5.969375 12.006634 43.031754
v 4.074667 12.006634 43.031754
v 4.074667 12.493827 51.710957
v 5.969375 12.493827 51.710957
v 5.969375 13.011507 51.710957
v 4.074667 13.011507 51.710957
v 4.074667 13.348833 61.832600
v 5.969375 13.348833 61.832600
v 5.969375 13.866513 61.832600
v 4.074667 13.866513 61.832600
v 4.074667 12.735231 68.833847
v 5.969375 12.735231 68.833847
v 5.969375 13.252913 68.833847
v 4.074667 13.252913 68.833847
v 4.074667 12.259949 71.606384
v 5.969375 12.259949 71.606384
v 5.969375 12.777630 71.606384
v 4.074667 12.777630 71.606384
vt 0.375000 0.000000
vt 0.625000 0.000000
vt 0.375000 0.250000
vt 0.625000 0.250000
vt 0.375000 0.500000
vt 0.625000 0.500000
vt 0.375000 0.750000
vt 0.625000 0.750000
vt 0.375000 1.000000
vt 0.625000 1.000000
vt 0.875000 0.000000
vt 0.875000 0.250000
vt 0.125000 0.000000
vt 0.125000 0.250000
vt 0.375000 0.000000
vt 0.625000 0.000000
vt 0.625000 0.250000
vt 0.375000 0.250000
vt 0.375000 0.000000
vt 0.625000 0.000000
vt 0.625000 0.250000
vt 0.375000 0.250000
vt 0.375000 0.000000
vt 0.625000 0.000000
vt 0.625000 0.250000
vt 0.375000 0.250000
vt 0.375000 0.000000
vt 0.625000 0.000000
vt 0.625000 0.250000
vt 0.375000 0.250000
vt 0.375000 0.000000
vt 0.625000 0.000000
vt 0.625000 0.250000
vt 0.375000 0.250000
vt 0.375000 0.000000
vt 0.625000 0.000000
vt 0.625000 0.250000
vt 0.375000 0.250000
vt 0.375000 0.000000
vt 0.625000 0.000000
vt 0.625000 0.250000
vt 0.375000 0.250000
vn 0.000000 0.000000 1.000000
vn 0.000000 0.000000 1.000000
vn 0.000000 0.000000 1.000000
vn 0.000000 0.000000 1.000000
vn 0.000000 0.996529 -0.083251
vn 0.000000 0.996529 -0.083251
vn 0.000000 0.999665 -0.025868
vn 0.000000 0.999665 -0.025868
vn 0.000000 0.000000 -1.000000
vn 0.000000 0.000000 -1.000000
vn 0.000000 0.000000 -1.000000
vn 0.000000 0.000000 -1.000000
vn 0.000000 -0.999665 0.025868
vn 0.000000 -0.999665 0.025868
vn 0.000000 -0.996529 0.083251
vn 0.000000 -0.996529 0.083251
vn 1.000000 0.000000 0.000000
vn 1.000000 0.000000 0.000000
vn 1.000000 0.000000 0.000000
vn 1.000000 0.000000 0.000000
vn -1.000000 0.000000 0.000000
vn -1.000000 0.000000 0.000000
vn -1.000000 0.000000 0.000000
vn -1.000000 0.000000 0.000000
vn 0.000000 -0.991777 0.127980
vn 0.000000 -0.991777 0.127980
vn 1.000000 0.000000 0.000000
vn 1.000000 0.000000 0.000000
vn 0.000000 0.991777 -0.127980
vn 0.000000 0.991777 -0.127980
vn -1.000000 0.000000 0.000000
vn -1.000000 0.000000 0.000000
vn 0.000000 -0.990217 0.139536
vn 0.000000 -0.990217 0.139536
vn 1.000000 0.000000 0.000000
vn 1.000000 0.000000 0.000000
vn 0.000000 0.990217 -0.139536
vn 0.000000 0.990217 -0.139536
vn -1.000000 0.000000 0.000000
vn -1.000000 0.000000 0.000000
vn 0.000000 -0.991580 0.129495
vn 0.000000 -0.991580 0.129495
vn 1.000000 0.000000 0.000000
vn 1.000000 0.000000 0.000000
vn 0.000000 0.991580 -0.129495
vn 0.000000 0.991580 -0.129495
vn -1.000000 0.000000 0.000000
vn -1.000000 0.000000 0.000000
vn 0.000000 -0.995143 0.098445
vn 0.000000 -0.995143 0.098445
vn 1.000000 0.000000 0.000000
vn 1.000000 0.000000 0.000000
vn 0.000000 0.995143 -0.098445
vn 0.000000 0.995143 -0.098445
vn -1.000000 0.000000 0.000000
vn -1.000000 0.000000 0.000000
vn 0.000000 -0.999901 0.014097
vn 0.000000 -0.999901 0.014097
vn 1.000000 0.000000 0.000000
vn 1.000000 0.000000 0.000000
vn 0.000000 0.999901 -0.014097
vn 0.000000 0.999901 -0.014097
vn -1.000000 0.000000 0.000000
vn -1.000000 0.000000 0.000000
vn 0.000000 -0.993851 -0.110724
vn 0.000000 -0.993851 -0.110724
vn 1.000000 0.000000 0.000000
vn 1.000000 0.000000 0.000000
vn 0.000000 0.993851 0.110724
vn 0.000000 0.993851 0.110724
vn -1.000000 0.000000 0.000000
vn -1.000000 0.000000 0.000000
vn 0.000000 -0.985623 -0.168961
vn 0.000000 -0.985623 -0.168961
vn 1.000000 0.000000 0.000000
vn 1.000000 0.000000 0.000000
vn 0.000000 0.985623 0.168961
vn 0.000000 0.985623 0.168961
vn -1.000000 0.000000 0.000000
vn -1.000000 0.000000 0.000000
s off
g junta_escalones1 puente_denenedor
usemtl initialShadingGroup
f 33/39/1 34/40/2 35/41/3 36/42/4
s 1
f 3/3/5 4/4/6 6/6/7 5/5/8
s off
f 5/5/9 6/6/10 8/8/11 7/7/12
s 2
f 7/7/13 8/8/14 2/10/15 1/9/16
s 3
f 2/2/17 8/11/18 6/12/19 4/4/20
s 4
f 7/13/21 1/1/22 3/3/23 5/14/24
s 2
f 1/1/16 2/2/15 10/16/25 9/15/26
s 3
f 2/2/17 4/4/20 11/17/27 10/16/28
s 1
f 4/4/6 3/3/5 12/18/29 11/17/30
s 4
f 3/3/23 1/1/22 9/15/31 12/18/32
s 2
f 9/15/26 10/16/25 14/20/33 13/19/34
s 3
f 10/16/28 11/17/27 15/21/35 14/20/36
s 1
f 11/17/30 12/18/29 16/22/37 15/21/38
s 4
f 12/18/32 9/15/31 13/19/39 16/22/40
s 2
f 13/19/34 14/20/33 18/24/41 17/23/42
s 3
f 14/20/36 15/21/35 19/25/43 18/24/44
s 1
f 15/21/38 16/22/37 20/26/45 19/25/46
s 4
f 16/22/40 13/19/39 17/23/47 20/26/48
s 2
f 17/23/42 18/24/41 22/28/49 21/27/50
s 3
f 18/24/44 19/25/43 23/29/51 22/28/52
s 1
f 19/25/46 20/26/45 24/30/53 23/29/54
s 4
f 20/26/48 17/23/47 21/27/55 24/30/56
s 2
f 21/27/50 22/28/49 26/32/57 25/31/58
s 3
f 22/28/52 23/29/51 27/33/59 26/32/60
s 1
f 23/29/54 24/30/53 28/34/61 27/33/62
s 4
f 24/30/56 21/27/55 25/31/63 28/34/64
s 2
f 25/31/58 26/32/57 30/36/65 29/35/66
s 3
f 26/32/60 27/33/59 31/37/67 30/36/68
s 1
f 27/33/62 28/34/61 32/38/69 31/37/70
s 4
f 28/34/64 25/31/63 29/35/71 32/38/72
s 2
f 29/35/66 30/36/65 34/40/73 33/39/74
s 3
f 30/36/68 31/37/67 35/41/75 34/40/76
s 1
f 31/37/70 32/38/69 36/42/77 35/41/78
s 4
f 32/38/72 29/35/71 33/39/79 36/42/80
g default
v -6.100780 8.570097 21.523027
v -4.206072 8.570097 21.523027
v -6.100780 9.087777 21.523027
v -4.206072 9.087777 21.523027
v -6.100780 8.994046 17.900805
v -4.206072 8.994046 17.900805
v -6.100780 8.476366 17.900805
v -4.206072 8.476366 17.900805
v -6.100780 9.246229 27.116234
v -4.206072 9.246229 27.116234
v -4.206072 9.763909 27.116234
v -6.100780 9.763909 27.116234
v -6.100780 10.118988 33.526119
v -4.206072 10.118988 33.526119
v -4.206072 10.636668 33.526119
v -6.100780 10.636668 33.526119
v -6.100780 11.488952 43.031754
v -4.206072 11.488952 43.031754
v -4.206072 12.006634 43.031754
v -6.100780 12.006634 43.031754
v -6.100780 12.493827 51.710957
v -4.206072 12.493827 51.710957
v -4.206072 13.011506 51.710957
v -6.100780 13.011506 51.710957
v -6.100780 13.348833 61.832603
v -4.206072 13.348833 61.832603
v -4.206072 13.866513 61.832603
v -6.100780 13.866513 61.832603
v -6.100780 12.735231 68.833847
v -4.206072 12.735231 68.833847
v -4.206072 13.252913 68.833847
v -6.100780 13.252913 68.833847
v -6.100780 12.259949 71.606384
v -4.206072 12.259949 71.606384
v -4.206072 12.777630 71.606384
v -6.100780 12.777630 71.606384
vt 0.375000 0.000000
vt 0.625000 0.000000
vt 0.375000 0.250000
vt 0.625000 0.250000
vt 0.375000 0.500000
vt 0.625000 0.500000
vt 0.375000 0.750000
vt 0.625000 0.750000
vt 0.375000 1.000000
vt 0.625000 1.000000
vt 0.875000 0.000000
vt 0.875000 0.250000
vt 0.125000 0.000000
vt 0.125000 0.250000
vt 0.375000 0.000000
vt 0.625000 0.000000
vt 0.625000 0.250000
vt 0.375000 0.250000
vt 0.375000 0.000000
vt 0.625000 0.000000
vt 0.625000 0.250000
vt 0.375000 0.250000
vt 0.375000 0.000000
vt 0.625000 0.000000
vt 0.625000 0.250000
vt 0.375000 0.250000
vt 0.375000 0.000000
vt 0.625000 0.000000
vt 0.625000 0.250000
vt 0.375000 0.250000
vt 0.375000 0.000000
vt 0.625000 0.000000
vt 0.625000 0.250000
vt 0.375000 0.250000
vt 0.375000 0.000000
vt 0.625000 0.000000
vt 0.625000 0.250000
vt 0.375000 0.250000
vt 0.375000 0.000000
vt 0.625000 0.000000
vt 0.625000 0.250000
vt 0.375000 0.250000
vn 0.000000 0.000000 1.000000
vn 0.000000 0.000000 1.000000
vn 0.000000 0.000000 1.000000
vn 0.000000 0.000000 1.000000
vn 0.000000 0.996529 -0.083251
vn 0.000000 0.996529 -0.083251
vn 0.000000 0.999665 -0.025868
vn 0.000000 0.999665 -0.025868
vn 0.000000 0.000000 -1.000000
vn 0.000000 0.000000 -1.000000
vn 0.000000 0.000000 -1.000000
vn 0.000000 0.000000 -1.000000
vn 0.000000 -0.999665 0.025868
vn 0.000000 -0.999665 0.025868
vn 0.000000 -0.996529 0.083251
vn 0.000000 -0.996529 0.083251
vn 1.000000 0.000000 0.000000
vn 1.000000 0.000000 0.000000
vn 1.000000 0.000000 0.000000
vn 1.000000 0.000000 0.000000
vn -1.000000 0.000000 0.000000
vn -1.000000 0.000000 0.000000
vn -1.000000 0.000000 0.000000
vn -1.000000 0.000000 0.000000
vn 0.000000 -0.991777 0.127980
vn 0.000000 -0.991777 0.127980
vn 1.000000 0.000000 0.000000
vn 1.000000 0.000000 0.000000
vn 0.000000 0.991777 -0.127980
vn 0.000000 0.991777 -0.127980
vn -1.000000 0.000000 0.000000
vn -1.000000 0.000000 0.000000
vn 0.000000 -0.990217 0.139536
vn 0.000000 -0.990217 0.139536
vn 1.000000 0.000000 0.000000
vn 1.000000 0.000000 0.000000
vn 0.000000 0.990217 -0.139536
vn 0.000000 0.990217 -0.139536
vn -1.000000 0.000000 0.000000
vn -1.000000 0.000000 0.000000
vn 0.000000 -0.991580 0.129495
vn 0.000000 -0.991580 0.129495
vn 1.000000 0.000000 0.000000
vn 1.000000 0.000000 0.000000
vn 0.000000 0.991580 -0.129495
vn 0.000000 0.991580 -0.129495
vn -1.000000 0.000000 0.000000
vn -1.000000 0.000000 0.000000
vn 0.000000 -0.995143 0.098445
vn 0.000000 -0.995143 0.098445
vn 1.000000 0.000000 0.000000
vn 1.000000 0.000000 0.000000
vn 0.000000 0.995143 -0.098445
vn 0.000000 0.995143 -0.098445
vn -1.000000 0.000000 0.000000
vn -1.000000 0.000000 0.000000
vn 0.000000 -0.999901 0.014097
vn 0.000000 -0.999901 0.014097
vn 1.000000 0.000000 0.000000
vn 1.000000 0.000000 0.000000
vn 0.000000 0.999901 -0.014097
vn 0.000000 0.999901 -0.014097
vn -1.000000 0.000000 0.000000
vn -1.000000 0.000000 0.000000
vn 0.000000 -0.993851 -0.110724
vn 0.000000 -0.993851 -0.110724
vn 1.000000 0.000000 0.000000
vn 1.000000 0.000000 0.000000
vn 0.000000 0.993851 0.110724
vn 0.000000 0.993851 0.110724
vn -1.000000 0.000000 0.000000
vn -1.000000 0.000000 0.000000
vn 0.000000 -0.985623 -0.168961
vn 0.000000 -0.985623 -0.168961
vn 1.000000 0.000000 0.000000
vn 1.000000 0.000000 0.000000
vn 0.000000 0.985623 0.168961
vn 0.000000 0.985623 0.168961
vn -1.000000 0.000000 0.000000
vn -1.000000 0.000000 0.000000
s off
g puente_denenedor junta_escalones
usemtl initialShadingGroup
f 69/81/81 70/82/82 71/83/83 72/84/84
s 1
f 39/45/85 40/46/86 42/48/87 41/47/88
s off
f 41/47/89 42/48/90 44/50/91 43/49/92
s 2
f 43/49/93 44/50/94 38/52/95 37/51/96
s 3
f 38/44/97 44/53/98 42/54/99 40/46/100
s 4
f 43/55/101 37/43/102 39/45/103 41/56/104
s 2
f 37/43/96 38/44/95 46/58/105 45/57/106
s 3
f 38/44/97 40/46/100 47/59/107 46/58/108
s 1
f 40/46/86 39/45/85 48/60/109 47/59/110
s 4
f 39/45/103 37/43/102 45/57/111 48/60/112
s 2
f 45/57/106 46/58/105 50/62/113 49/61/114
s 3
f 46/58/108 47/59/107 51/63/115 50/62/116
s 1
f 47/59/110 48/60/109 52/64/117 51/63/118
s 4
f 48/60/112 45/57/111 49/61/119 52/64/120
s 2
f 49/61/114 50/62/113 54/66/121 53/65/122
s 3
f 50/62/116 51/63/115 55/67/123 54/66/124
s 1
f 51/63/118 52/64/117 56/68/125 55/67/126
s 4
f 52/64/120 49/61/119 53/65/127 56/68/128
s 2
f 53/65/122 54/66/121 58/70/129 57/69/130
s 3
f 54/66/124 55/67/123 59/71/131 58/70/132
s 1
f 55/67/126 56/68/125 60/72/133 59/71/134
s 4
f 56/68/128 53/65/127 57/69/135 60/72/136
s 2
f 57/69/130 58/70/129 62/74/137 61/73/138
s 3
f 58/70/132 59/71/131 63/75/139 62/74/140
s 1
f 59/71/134 60/72/133 64/76/141 63/75/142
s 4
f 60/72/136 57/69/135 61/73/143 64/76/144
s 2
f 61/73/138 62/74/137 66/78/145 65/77/146
s 3
f 62/74/140 63/75/139 67/79/147 66/78/148
s 1
f 63/75/142 64/76/141 68/80/149 67/79/150
s 4
f 64/76/144 61/73/143 65/77/151 68/80/152
s 2
f 65/77/146 66/78/145 70/82/153 69/81/154
s 3
f 66/78/148 67/79/147 71/83/155 70/82/156
s 1
f 67/79/150 68/80/149 72/84/157 71/83/158
s 4
f 68/80/152 65/77/151 69/81/159 72/84/160
