# This file uses centimeters as units for non-parametric coordinates.

mtllib OBJ_TECHO1_01.mtl
g default
v -23.727791 37.236492 0.009732
v -18.322102 35.940971 2.512115
v -13.556211 35.880680 5.654826
v -8.959961 35.880680 8.967314
v -5.643698 35.880680 13.560845
v -2.497083 35.940971 18.324156
v 0.009732 37.236492 23.727791
v -18.719782 35.898903 -2.892387
v -15.818526 35.957642 0.006487
v -11.864295 35.876652 3.960172
v -7.845100 35.873825 7.851537
v -3.950438 35.876652 11.867540
v 0.006490 35.957642 15.818527
v 2.907740 35.898903 18.717400
v -13.925701 35.880680 -6.008260
v -11.869094 35.873425 -3.950956
v -7.909263 39.663902 0.003244
v -3.953010 39.663902 3.956253
v 0.003245 39.663902 7.909264
v 3.960694 35.873425 11.865852
v 6.019682 35.880680 13.920769
v -9.529459 35.880680 -9.521646
v -7.915775 35.860691 -7.909286
v -3.956253 39.663902 -3.953010
v 0.000000 43.861931 0.000000
v 3.956255 39.663902 3.953011
v 7.915777 35.860691 7.909286
v 9.529459 35.880680 9.521646
v -6.019682 35.880680 -13.920769
v -3.960690 35.873425 -11.865850
v -0.003243 39.663902 -7.909264
v 3.953011 39.663902 -3.956255
v 7.909266 39.663902 -0.003244
v 11.869098 35.873425 3.950958
v 13.925701 35.880680 6.008259
v -2.907737 35.898903 -18.717400
v -0.006485 35.957642 -15.818527
v 3.950441 35.876652 -11.867541
v 7.845100 35.873825 -7.851540
v 11.864295 35.876652 -3.960174
v 15.818531 35.957642 -0.006489
v 18.719782 35.898903 2.892380
v -0.009732 37.236492 -23.727791
v 2.497086 35.940971 -18.324154
v 5.643704 35.880680 -13.560845
v 8.959961 35.880680 -8.967314
v 13.556214 35.880680 -5.654825
v 18.322102 35.940971 -2.512114
v 23.727791 37.236492 -0.009732
v -8.983607 41.065495 0.003684
v -6.936951 41.065495 0.951115
v -7.087517 41.065495 -1.095088
v -5.132531 41.065495 2.140982
v -3.392341 41.065495 3.395124
v -2.136768 41.065495 5.134288
v -0.945423 41.065495 6.937730
v 0.003684 41.065495 8.983607
v 1.100904 41.065495 7.086617
v -5.272424 41.065495 -2.274792
v 2.279119 41.065495 5.270555
v -3.607959 41.065495 -3.605001
v 3.607959 41.065495 3.605001
v -2.279118 41.065495 -5.270557
v 5.272424 41.065495 2.274792
v -1.100903 41.065495 -7.086617
v 7.087518 41.065495 1.095086
v 0.945423 41.065495 -6.937728
v -0.003684 41.065495 -8.983607
v 2.136769 41.065495 -5.134287
v 3.392341 41.065495 -3.395124
v 5.132531 41.065495 -2.140982
v 6.936951 41.065495 -0.951114
v 8.983607 41.065495 -0.003684
v -2.335737 43.687054 0.000959
v -1.803607 43.687054 0.247290
v -1.842755 43.687054 -0.284723
v -1.334459 43.687050 0.556655
v -0.882009 43.687054 0.882732
v -0.555560 43.687050 1.334915
v -0.245809 43.687054 1.803810
v 0.000959 43.687054 2.335737
v 0.286235 43.687054 1.842520
v -1.370831 43.687054 -0.591447
v 0.592572 43.687054 1.370345
v -0.938070 43.687054 -0.937301
v 0.938070 43.687054 0.937301
v -0.592572 43.687054 -1.370345
v 1.370831 43.687054 0.591447
v -0.286235 43.687054 -1.842521
v 1.842755 43.687054 0.284723
v 0.245809 43.687054 -1.803810
v -0.000959 43.687054 -2.335737
v 0.555560 43.687050 -1.334915
v 0.882009 43.687054 -0.882732
v 1.334459 43.687050 -0.556655
v 1.803608 43.687054 -0.247290
v 2.335737 43.687054 -0.000959
v -0.283891 44.657810 0.000117
v -0.219215 44.657803 0.030056
v -0.223973 44.657803 -0.034606
v -0.162193 44.657803 0.067657
v -0.107201 44.657803 0.107289
v -0.067524 44.657803 0.162249
v -0.029876 44.657803 0.219239
v 0.000117 44.657810 0.283891
v 0.034790 44.657803 0.223944
v -0.166614 44.657803 -0.071886
v 0.072022 44.657803 0.166555
v -0.114015 44.657803 -0.113922
v 0.114015 44.657803 0.113922
v -0.072023 44.657803 -0.166555
v 0.166614 44.657803 0.071886
v -0.034790 44.657810 -0.223944
v 0.223973 44.657803 0.034606
v 0.029876 44.657810 -0.219239
v -0.000117 44.657810 -0.283891
v 0.067524 44.657803 -0.162249
v 0.107201 44.657803 -0.107289
v 0.162193 44.657803 -0.067657
v 0.219215 44.657803 -0.030056
v 0.283891 44.657810 -0.000117
v -10.392854 37.465168 4.335266
v -14.046618 37.465168 1.925912
v -18.190882 38.121174 0.007461
v -14.351496 37.465168 -2.217435
v -10.676123 37.465168 -4.606226
v -7.305748 37.465168 -7.299758
v -4.614981 37.465168 -10.672341
v -2.229213 37.465168 -14.349673
v -0.007461 38.121174 -18.190882
v 1.914387 37.465168 -14.048191
v 4.326740 37.465168 -10.396406
v 6.869143 37.465168 -6.874780
v 10.392855 37.465168 -4.335265
v 14.046618 37.465168 -1.925910
v 18.190882 38.121174 -0.007461
v 14.351496 37.465168 2.217435
v 10.676123 37.465168 4.606225
v 7.305748 37.465168 7.299758
v 4.614983 37.465168 10.672340
v 2.229216 37.465168 14.349673
v 0.007461 38.121174 18.190882
v -1.914386 37.465168 14.048193
v -4.326738 37.465168 10.396408
v -6.869143 37.465168 6.874780
vt 0.010772 0.000000
vt 0.094436 0.025403
vt 0.092594 0.086006
vt 0.040332 0.084764
vt 0.087384 0.171268
vt 0.052368 0.169910
vt 0.081444 0.259884
vt 0.058662 0.259409
vt 0.083685 0.348672
vt 0.048643 0.348569
vt 0.085336 0.434077
vt 0.033067 0.433139
vt 0.084650 0.494704
vt 0.000000 0.516597
vt 0.178276 0.042546
vt 0.177395 0.085025
vt 0.182398 0.181386
vt 0.177059 0.261878
vt 0.179038 0.342523
vt 0.170022 0.438591
vt 0.169132 0.481070
vt 0.266196 0.050884
vt 0.265506 0.083989
vt 0.263545 0.178033
vt 0.261760 0.263644
vt 0.259975 0.349256
vt 0.258014 0.443300
vt 0.257323 0.476405
vt 0.354388 0.046219
vt 0.353497 0.088697
vt 0.344482 0.184766
vt 0.346460 0.265411
vt 0.341122 0.345903
vt 0.346125 0.442263
vt 0.345244 0.484742
vt 0.438869 0.032585
vt 0.438183 0.093212
vt 0.439835 0.178617
vt 0.442075 0.267404
vt 0.436136 0.356021
vt 0.430925 0.441283
vt 0.429084 0.501886
vt 0.523520 0.010692
vt 0.490452 0.094150
vt 0.474877 0.178720
vt 0.464858 0.267879
vt 0.471152 0.357379
vt 0.483188 0.442525
vt 0.512747 0.527289
vt 0.487192 1.000000
vt 0.404978 0.984115
vt 0.366617 0.934296
vt 0.431150 0.945183
vt 0.476422 0.919305
vt 0.424123 0.881970
vt 0.325184 0.974614
vt 0.305354 0.926163
vt 0.243768 0.965467
vt 0.244010 0.918933
vt 0.162262 0.973763
vt 0.182597 0.925521
vt 0.082375 0.982431
vt 0.121253 0.933016
vt 0.000000 0.997459
vt 0.056610 0.943229
vt 0.011611 0.916880
vt 0.064296 0.880093
vt 0.465146 0.840316
vt 0.415279 0.820918
vt 0.023709 0.838014
vt 0.073776 0.819137
vt 0.459456 0.760230
vt 0.410773 0.759976
vt 0.030233 0.757993
vt 0.078916 0.758247
vt 0.465981 0.680208
vt 0.415914 0.699085
vt 0.024543 0.677906
vt 0.074410 0.697305
vt 0.478078 0.601342
vt 0.425393 0.638129
vt 0.013268 0.598918
vt 0.065567 0.636253
vt 0.407315 0.535791
vt 0.489689 0.520763
vt 0.433079 0.574993
vt 0.368436 0.585207
vt 0.327427 0.544459
vt 0.307093 0.592701
vt 0.245922 0.552756
vt 0.245679 0.599289
vt 0.164505 0.543609
vt 0.184336 0.592059
vt 0.084712 0.534108
vt 0.123073 0.583926
vt 0.002498 0.518223
vt 0.058540 0.573040
vt 0.334850 0.849679
vt 0.304371 0.842967
vt 0.259588 0.780421
vt 0.267016 0.781687
vt 0.330146 0.819426
vt 0.266053 0.774144
vt 0.274416 0.839590
vt 0.252164 0.779709
vt 0.244443 0.836337
vt 0.244742 0.778939
vt 0.214437 0.839272
vt 0.237313 0.779631
vt 0.184449 0.842341
vt 0.229885 0.780256
vt 0.153902 0.848734
vt 0.222441 0.781448
vt 0.158920 0.818533
vt 0.223487 0.773912
vt 0.326563 0.789392
vt 0.265247 0.766654
vt 0.162817 0.788538
vt 0.224369 0.766430
vt 0.324491 0.759526
vt 0.264718 0.759220
vt 0.165199 0.758696
vt 0.224972 0.759002
vt 0.326873 0.729684
vt 0.265321 0.751792
vt 0.163127 0.728831
vt 0.224443 0.751568
vt 0.330770 0.699689
vt 0.266203 0.744311
vt 0.159543 0.698797
vt 0.223637 0.744078
vt 0.305241 0.675882
vt 0.335788 0.669488
vt 0.267249 0.736775
vt 0.259805 0.737966
vt 0.275253 0.678950
vt 0.252377 0.738592
vt 0.245246 0.681885
vt 0.244948 0.739283
vt 0.215273 0.678633
vt 0.237526 0.738513
vt 0.185319 0.675255
vt 0.230102 0.737802
vt 0.154840 0.668544
vt 0.222674 0.736536
vt 0.246338 0.761711
vt 0.247047 0.761634
vt 0.246939 0.760791
vt 0.245598 0.761804
vt 0.244832 0.761854
vt 0.244068 0.761795
vt 0.243329 0.761693
vt 0.242612 0.761615
vt 0.242731 0.760774
vt 0.246829 0.759950
vt 0.242850 0.759935
vt 0.246761 0.759118
vt 0.242929 0.759105
vt 0.246839 0.758287
vt 0.242860 0.758272
vt 0.246959 0.757448
vt 0.242751 0.757431
vt 0.247078 0.756607
vt 0.246361 0.756529
vt 0.245622 0.756427
vt 0.244857 0.756369
vt 0.244092 0.756418
vt 0.243352 0.756512
vt 0.242643 0.756588
vn -0.159579 -0.986994 0.019426
vn -0.096207 -0.995223 0.016567
vn 0.123400 -0.992342 0.005452
vn -0.106028 -0.994324 0.008819
vn 0.305218 -0.939012 -0.158427
vn -0.005625 -0.999965 -0.006235
vn 0.318308 -0.892857 -0.318569
vn -0.001937 -0.999996 0.001939
vn 0.158177 -0.939012 -0.305348
vn 0.006241 -0.999965 0.005620
vn -0.005553 -0.992342 -0.123396
vn -0.008731 -0.994324 0.106035
vn -0.016488 -0.995224 0.096220
vn -0.019294 -0.986994 0.159595
vn -0.002768 -0.999976 0.006425
vn 0.288821 -0.945671 0.149292
vn 0.440288 -0.897856 -0.000618
vn 0.330202 -0.884169 -0.330473
vn 0.000257 -0.897856 -0.440289
vn -0.149529 -0.945671 -0.288698
vn -0.006423 -0.999976 0.002773
vn -0.003713 -0.999986 -0.003711
vn 0.296512 -0.907913 0.296268
vn 0.329767 -0.884695 0.329497
vn 0.000000 -1.000000 0.000000
vn -0.329767 -0.884695 -0.329496
vn -0.296512 -0.907913 -0.296268
vn 0.003713 -0.999986 0.003711
vn 0.006423 -0.999976 -0.002773
vn 0.149530 -0.945671 0.288698
vn -0.000257 -0.897856 0.440289
vn -0.330202 -0.884169 0.330473
vn -0.440288 -0.897856 0.000619
vn -0.288821 -0.945671 -0.149292
vn 0.002768 -0.999976 -0.006425
vn 0.016488 -0.995224 -0.096220
vn 0.005553 -0.992342 0.123396
vn -0.158177 -0.939012 0.305348
vn -0.318308 -0.892857 0.318570
vn -0.305218 -0.939012 0.158427
vn -0.123400 -0.992342 -0.005452
vn 0.096207 -0.995224 -0.016567
vn 0.019294 -0.986994 -0.159595
vn 0.008731 -0.994324 -0.106035
vn -0.006241 -0.999965 -0.005621
vn 0.001937 -0.999996 -0.001939
vn 0.005625 -0.999965 0.006236
vn 0.106028 -0.994324 -0.008819
vn 0.159579 -0.986994 -0.019426
vn -0.145427 0.750012 0.645238
vn -0.176071 0.787931 0.590055
vn -0.253484 0.788535 0.560321
vn -0.165876 0.739336 0.652586
vn -0.183219 0.822321 -0.538719
vn -0.157778 0.797474 -0.582359
vn -0.182186 0.788914 -0.586876
vn -0.256539 0.816865 -0.516641
vn -0.267604 0.876687 0.399761
vn -0.309838 0.836646 0.451691
vn -0.333742 0.881504 0.334016
vn -0.383503 0.840006 0.383818
vn -0.399541 0.876686 0.267932
vn -0.451436 0.836646 0.310208
vn -0.589910 0.787931 0.176555
vn -0.560113 0.788534 0.253943
vn -0.645119 0.750013 0.145956
vn -0.652450 0.739336 0.166411
vn 0.582489 0.797473 0.157301
vn 0.538870 0.822321 0.182777
vn 0.516852 0.816866 0.256116
vn 0.587025 0.788913 0.181706
vn -0.265632 0.885314 -0.381652
vn -0.308257 0.848687 -0.429776
vn 0.381870 0.885314 0.265319
vn 0.430029 0.848687 0.307904
vn -0.318402 0.892976 -0.318141
vn -0.366391 0.855415 -0.366091
vn 0.318403 0.892976 0.318142
vn 0.366391 0.855415 0.366091
vn -0.381869 0.885314 -0.265319
vn -0.430029 0.848687 -0.307904
vn 0.265633 0.885314 0.381652
vn 0.308257 0.848687 0.429776
vn -0.538870 0.822321 -0.182778
vn -0.516852 0.816865 -0.256116
vn 0.183219 0.822321 0.538720
vn 0.256540 0.816865 0.516642
vn 0.589909 0.787931 -0.176555
vn 0.645118 0.750013 -0.145956
vn 0.652449 0.739336 -0.166411
vn 0.560113 0.788535 -0.253943
vn -0.582489 0.797473 -0.157301
vn -0.587026 0.788913 -0.181706
vn 0.399541 0.876687 -0.267931
vn 0.451436 0.836646 -0.310208
vn 0.333742 0.881504 -0.334016
vn 0.383503 0.840006 -0.383817
vn 0.267604 0.876687 -0.399760
vn 0.309838 0.836646 -0.451691
vn 0.176071 0.787931 -0.590055
vn 0.253484 0.788535 -0.560321
vn 0.157778 0.797473 0.582360
vn 0.182186 0.788913 0.586877
vn 0.145427 0.750012 -0.645238
vn 0.165876 0.739335 -0.652586
vn -0.241928 0.699094 0.672859
vn -0.310110 0.769532 0.558258
vn -0.325769 0.773592 0.543534
vn -0.287884 0.728261 0.621899
vn -0.308628 0.793660 -0.524265
vn -0.263740 0.759567 -0.594558
vn -0.310815 0.784674 -0.536360
vn -0.323063 0.794614 -0.514022
vn -0.342578 0.799577 0.493272
vn -0.347636 0.794164 0.498451
vn -0.418067 0.806320 0.418410
vn -0.423919 0.800181 0.424268
vn -0.492990 0.799577 0.342983
vn -0.498164 0.794165 0.348046
vn -0.558003 0.769532 0.310568
vn -0.543265 0.773593 0.326215
vn -0.672660 0.699094 0.242480
vn -0.621660 0.728263 0.288395
vn 0.594772 0.759569 0.263253
vn 0.524517 0.793660 0.308198
vn 0.514286 0.794615 0.322642
vn 0.536611 0.784675 0.310376
vn -0.342537 0.815057 -0.467279
vn -0.348653 0.810238 -0.471122
vn 0.467560 0.815057 0.342154
vn 0.471408 0.810238 0.348266
vn -0.401838 0.822993 -0.401508
vn -0.407552 0.817359 -0.407217
vn 0.401838 0.822993 0.401508
vn 0.407552 0.817359 0.407217
vn -0.467560 0.815057 -0.342154
vn -0.471409 0.810237 -0.348266
vn 0.342537 0.815057 0.467279
vn 0.348653 0.810238 0.471122
vn -0.524517 0.793660 -0.308198
vn -0.514286 0.794615 -0.322642
vn 0.308628 0.793660 0.524265
vn 0.323063 0.794615 0.514021
vn 0.558003 0.769532 -0.310568
vn 0.672660 0.699094 -0.242480
vn 0.621660 0.728264 -0.288395
vn 0.543265 0.773593 -0.326215
vn -0.594772 0.759568 -0.263253
vn -0.536611 0.784675 -0.310376
vn 0.492990 0.799577 -0.342983
vn 0.498164 0.794164 -0.348046
vn 0.418067 0.806320 -0.418411
vn 0.423919 0.800181 -0.424268
vn 0.342578 0.799577 -0.493272
vn 0.347636 0.794164 -0.498450
vn 0.310110 0.769532 -0.558258
vn 0.325769 0.773592 -0.543535
vn 0.263740 0.759567 0.594558
vn 0.310815 0.784673 0.536360
vn 0.241928 0.699094 -0.672859
vn 0.287884 0.728261 -0.621900
vn -0.359422 0.719582 0.594153
vn -0.314002 0.664285 0.678328
vn -0.344230 0.727073 -0.594029
vn -0.357418 0.742113 -0.567028
vn -0.384285 0.741266 0.550318
vn -0.468599 0.748643 0.468988
vn -0.549999 0.741267 0.384738
vn -0.593857 0.719583 0.359908
vn -0.678072 0.664283 0.314557
vn 0.567326 0.742111 0.356950
vn 0.594316 0.727071 0.343738
vn -0.387394 0.759926 -0.521957
vn 0.522277 0.759924 0.386967
vn -0.452861 0.768224 -0.452491
vn 0.452861 0.768223 0.452494
vn -0.522281 0.759921 -0.386965
vn 0.387393 0.759924 0.521961
vn -0.567330 0.742108 -0.356948
vn 0.357418 0.742113 0.567028
vn 0.678064 0.664290 -0.314560
vn 0.593860 0.719580 -0.359910
vn -0.594307 0.727076 -0.343744
vn 0.550003 0.741265 -0.384738
vn 0.468599 0.748642 -0.468988
vn 0.384285 0.741266 -0.550318
vn 0.359421 0.719580 -0.594156
vn 0.344230 0.727073 0.594030
vn 0.313998 0.664277 -0.678338
s 1
g polySurface4 techo2 techos
usemtl initialShadingGroup
f 1/1/1 8/2/2 9/3/3 2/4/4
f 2/4/4 9/3/3 10/5/5 3/6/6
f 3/6/6 10/5/5 11/7/7 4/8/8
f 4/8/8 11/7/7 12/9/9 5/10/10
f 5/10/10 12/9/9 13/11/11 6/12/12
f 6/12/12 13/11/11 14/13/13 7/14/14
f 8/2/2 15/15/15 16/16/16 9/3/3
f 9/3/3 16/16/16 17/17/17 10/5/5
f 10/5/5 17/17/17 18/18/18 11/7/7
f 11/7/7 18/18/18 19/19/19 12/9/9
f 12/9/9 19/19/19 20/20/20 13/11/11
f 13/11/11 20/20/20 21/21/21 14/13/13
f 15/15/15 22/22/22 23/23/23 16/16/16
f 16/16/16 23/23/23 24/24/24 17/17/17
f 17/17/17 24/24/24 25/25/25 18/18/18
f 18/18/18 25/25/25 26/26/26 19/19/19
f 19/19/19 26/26/26 27/27/27 20/20/20
f 20/20/20 27/27/27 28/28/28 21/21/21
f 22/22/22 29/29/29 30/30/30 23/23/23
f 23/23/23 30/30/30 31/31/31 24/24/24
f 24/24/24 31/31/31 32/32/32 25/25/25
f 25/25/25 32/32/32 33/33/33 26/26/26
f 26/26/26 33/33/33 34/34/34 27/27/27
f 27/27/27 34/34/34 35/35/35 28/28/28
f 29/29/29 36/36/36 37/37/37 30/30/30
f 30/30/30 37/37/37 38/38/38 31/31/31
f 31/31/31 38/38/38 39/39/39 32/32/32
f 32/32/32 39/39/39 40/40/40 33/33/33
f 33/33/33 40/40/40 41/41/41 34/34/34
f 34/34/34 41/41/41 42/42/42 35/35/35
f 36/36/36 43/43/43 44/44/44 37/37/37
f 37/37/37 44/44/44 45/45/45 38/38/38
f 38/38/38 45/45/45 46/46/46 39/39/39
f 39/39/39 46/46/46 47/47/47 40/40/40
f 40/40/40 47/47/47 48/48/48 41/41/41
f 41/41/41 48/48/48 49/49/49 42/42/42
s 2
f 1/50/50 2/51/51 123/52/52 124/53/53
s 3
f 8/54/54 1/50/55 124/53/56 125/55/57
s 2
f 2/51/51 3/56/58 122/57/59 123/52/52
f 3/56/58 4/58/60 145/59/61 122/57/59
f 4/58/60 5/60/62 144/61/63 145/59/61
f 5/60/62 6/62/64 143/63/65 144/61/63
f 6/62/64 7/64/66 142/65/67 143/63/65
s 4
f 7/64/68 14/66/69 141/67/70 142/65/71
s 3
f 15/68/72 8/54/54 125/55/57 126/69/73
s 4
f 14/66/69 21/70/74 140/71/75 141/67/70
s 3
f 22/72/76 15/68/72 126/69/73 127/73/77
s 4
f 21/70/74 28/74/78 139/75/79 140/71/75
s 3
f 29/76/80 22/72/76 127/73/77 128/77/81
s 4
f 28/74/78 35/78/82 138/79/83 139/75/79
s 3
f 36/80/84 29/76/80 128/77/81 129/81/85
s 4
f 35/78/82 42/82/86 137/83/87 138/79/83
s 5
f 44/84/88 43/85/89 130/86/90 131/87/91
s 3
f 43/85/92 36/80/84 129/81/85 130/86/93
s 5
f 45/88/94 44/84/88 131/87/91 132/89/95
f 46/90/96 45/88/94 132/89/95 133/91/97
f 47/92/98 46/90/96 133/91/97 134/93/99
f 48/94/100 47/92/98 134/93/99 135/95/101
s 4
f 42/82/86 49/96/102 136/97/103 137/83/87
s 5
f 49/96/104 48/94/100 135/95/101 136/97/105
s 2
f 50/98/106 51/99/107 75/100/108 74/101/109
s 3
f 52/102/110 50/98/111 74/101/112 76/103/113
s 2
f 51/99/107 53/104/114 77/105/115 75/100/108
f 53/104/114 54/106/116 78/107/117 77/105/115
f 54/106/116 55/108/118 79/109/119 78/107/117
f 55/108/118 56/110/120 80/111/121 79/109/119
f 56/110/120 57/112/122 81/113/123 80/111/121
s 4
f 57/112/124 58/114/125 82/115/126 81/113/127
s 3
f 59/116/128 52/102/110 76/103/113 83/117/129
s 4
f 58/114/125 60/118/130 84/119/131 82/115/126
s 3
f 61/120/132 59/116/128 83/117/129 85/121/133
s 4
f 60/118/130 62/122/134 86/123/135 84/119/131
s 3
f 63/124/136 61/120/132 85/121/133 87/125/137
s 4
f 62/122/134 64/126/138 88/127/139 86/123/135
s 3
f 65/128/140 63/124/136 87/125/137 89/129/141
s 4
f 64/126/138 66/130/142 90/131/143 88/127/139
s 5
f 67/132/144 68/133/145 92/134/146 91/135/147
s 3
f 68/133/148 65/128/140 89/129/141 92/134/149
s 5
f 69/136/150 67/132/144 91/135/147 93/137/151
f 70/138/152 69/136/150 93/137/151 94/139/153
f 71/140/154 70/138/152 94/139/153 95/141/155
f 72/142/156 71/140/154 95/141/155 96/143/157
s 4
f 66/130/142 73/144/158 97/145/159 90/131/143
s 5
f 73/144/160 72/142/156 96/143/157 97/145/161
s 2
f 74/101/109 75/100/108 99/146/162 98/147/163
s 3
f 76/103/113 74/101/112 98/147/164 100/148/165
s 2
f 75/100/108 77/105/115 101/149/166 99/146/162
f 77/105/115 78/107/117 102/150/167 101/149/166
f 78/107/117 79/109/119 103/151/168 102/150/167
f 79/109/119 80/111/121 104/152/169 103/151/168
f 80/111/121 81/113/123 105/153/170 104/152/169
s 4
f 81/113/127 82/115/126 106/154/171 105/153/172
s 3
f 83/117/129 76/103/113 100/148/165 107/155/173
s 4
f 82/115/126 84/119/131 108/156/174 106/154/171
s 3
f 85/121/133 83/117/129 107/155/173 109/157/175
s 4
f 84/119/131 86/123/135 110/158/176 108/156/174
s 3
f 87/125/137 85/121/133 109/157/175 111/159/177
s 4
f 86/123/135 88/127/139 112/160/178 110/158/176
s 3
f 89/129/141 87/125/137 111/159/177 113/161/179
s 4
f 88/127/139 90/131/143 114/162/180 112/160/178
s 5
f 91/135/147 92/134/146 116/163/181 115/164/182
s 3
f 92/134/149 89/129/141 113/161/179 116/163/183
s 5
f 93/137/151 91/135/147 115/164/182 117/165/184
f 94/139/153 93/137/151 117/165/184 118/166/185
f 95/141/155 94/139/153 118/166/185 119/167/186
f 96/143/157 95/141/155 119/167/186 120/168/187
s 4
f 90/131/143 97/145/159 121/169/188 114/162/180
s 5
f 97/145/161 96/143/157 120/168/187 121/169/189
s 2
f 123/52/52 122/57/59 53/104/114 51/99/107
f 124/53/53 123/52/52 51/99/107 50/98/106
s 3
f 125/55/57 124/53/56 50/98/111 52/102/110
f 126/69/73 125/55/57 52/102/110 59/116/128
f 127/73/77 126/69/73 59/116/128 61/120/132
f 128/77/81 127/73/77 61/120/132 63/124/136
f 129/81/85 128/77/81 63/124/136 65/128/140
f 130/86/93 129/81/85 65/128/140 68/133/148
s 5
f 131/87/91 130/86/90 68/133/145 67/132/144
f 132/89/95 131/87/91 67/132/144 69/136/150
f 133/91/97 132/89/95 69/136/150 70/138/152
f 134/93/99 133/91/97 70/138/152 71/140/154
f 135/95/101 134/93/99 71/140/154 72/142/156
f 136/97/105 135/95/101 72/142/156 73/144/160
s 4
f 137/83/87 136/97/103 73/144/158 66/130/142
f 138/79/83 137/83/87 66/130/142 64/126/138
f 139/75/79 138/79/83 64/126/138 62/122/134
f 140/71/75 139/75/79 62/122/134 60/118/130
f 141/67/70 140/71/75 60/118/130 58/114/125
f 142/65/71 141/67/70 58/114/125 57/112/124
s 2
f 143/63/65 142/65/67 57/112/122 56/110/120
f 144/61/63 143/63/65 56/110/120 55/108/118
f 145/59/61 144/61/63 55/108/118 54/106/116
f 122/57/59 145/59/61 54/106/116 53/104/114
