# This file uses centimeters as units for non-parametric coordinates.

mtllib MOD_PUENTE_ESCALONES_01.mtl
g default
v -6.236791 8.220208 18.238655
v 6.236791 8.220208 18.377972
v -6.236791 9.220208 18.238655
v 6.236791 9.220208 18.377972
v -6.236791 9.220208 13.694129
v 6.236791 9.220208 14.415615
v -6.236791 8.220208 13.694129
v 6.236791 8.220208 14.415615
vt 0.375000 0.000000
vt 0.625000 0.000000
vt 0.375000 0.250000
vt 0.625000 0.250000
vt 0.375000 0.500000
vt 0.625000 0.500000
vt 0.375000 0.750000
vt 0.625000 0.750000
vt 0.375000 1.000000
vt 0.625000 1.000000
vt 0.875000 0.000000
vt 0.875000 0.250000
vt 0.125000 0.000000
vt 0.125000 0.250000
vn -0.011168 0.000000 0.999938
vn -0.011168 0.000000 0.999938
vn -0.011168 0.000000 0.999938
vn -0.011168 0.000000 0.999938
vn 0.000000 1.000000 0.000000
vn 0.000000 1.000000 0.000000
vn 0.000000 1.000000 0.000000
vn 0.000000 1.000000 0.000000
vn 0.057745 0.000000 -0.998331
vn 0.057745 0.000000 -0.998331
vn 0.057745 0.000000 -0.998331
vn 0.057745 0.000000 -0.998331
vn 0.000000 -1.000000 0.000000
vn 0.000000 -1.000000 0.000000
vn 0.000000 -1.000000 0.000000
vn 0.000000 -1.000000 0.000000
vn 1.000000 0.000000 0.000000
vn 1.000000 0.000000 0.000000
vn 1.000000 0.000000 0.000000
vn 1.000000 0.000000 0.000000
vn -1.000000 0.000000 0.000000
vn -1.000000 0.000000 0.000000
vn -1.000000 0.000000 0.000000
vn -1.000000 0.000000 0.000000
s off
g escalon puente_escalones
usemtl initialShadingGroup
f 1/1/1 2/2/2 4/4/3 3/3/4
f 3/3/5 4/4/6 6/6/7 5/5/8
f 5/5/9 6/6/10 8/8/11 7/7/12
f 7/7/13 8/8/14 2/10/15 1/9/16
f 2/2/17 8/11/18 6/12/19 4/4/20
f 7/13/21 1/1/22 3/3/23 5/14/24
g default
v -6.237000 8.605781 22.761799
v 6.237000 8.605781 22.761799
v -6.237000 9.603624 22.696171
v 6.237000 9.603624 22.696171
v -6.237000 9.370509 19.151829
v 6.237000 9.370509 19.151829
v -6.237000 8.372665 19.217457
v 6.237000 8.372665 19.217457
vt 0.375000 0.000000
vt 0.625000 0.000000
vt 0.375000 0.250000
vt 0.625000 0.250000
vt 0.375000 0.500000
vt 0.625000 0.500000
vt 0.375000 0.750000
vt 0.625000 0.750000
vt 0.375000 1.000000
vt 0.625000 1.000000
vt 0.875000 0.000000
vt 0.875000 0.250000
vt 0.125000 0.000000
vt 0.125000 0.250000
vn 0.000000 0.065628 0.997844
vn 0.000000 0.065628 0.997844
vn 0.000000 0.065628 0.997844
vn 0.000000 0.065628 0.997844
vn 0.000000 0.997844 -0.065629
vn 0.000000 0.997844 -0.065629
vn 0.000000 0.997844 -0.065629
vn 0.000000 0.997844 -0.065629
vn 0.000000 -0.065628 -0.997844
vn 0.000000 -0.065628 -0.997844
vn 0.000000 -0.065628 -0.997844
vn 0.000000 -0.065628 -0.997844
vn 0.000000 -0.997844 0.065629
vn 0.000000 -0.997844 0.065629
vn 0.000000 -0.997844 0.065629
vn 0.000000 -0.997844 0.065629
vn 1.000000 0.000000 0.000000
vn 1.000000 0.000000 0.000000
vn 1.000000 0.000000 0.000000
vn 1.000000 0.000000 0.000000
vn -1.000000 -0.000000 0.000000
vn -1.000000 -0.000000 0.000000
vn -1.000000 -0.000000 0.000000
vn -1.000000 -0.000000 0.000000
s off
g puente_escalones escalon1
usemtl initialShadingGroup
f 9/15/25 10/16/26 12/18/27 11/17/28
f 11/17/29 12/18/30 14/20/31 13/19/32
f 13/19/33 14/20/34 16/22/35 15/21/36
f 15/21/37 16/22/38 10/24/39 9/23/40
f 10/16/41 16/25/42 14/26/43 12/18/44
f 15/27/45 9/15/46 11/17/47 13/28/48
g default
v -6.237000 9.177825 27.243467
v 6.237000 9.177825 27.243467
v -6.237000 10.173557 27.151188
v 6.237000 10.173557 27.151188
v -6.237000 9.845780 23.614344
v 6.237000 9.845780 23.614344
v -6.237000 8.850048 23.706623
v 6.237000 8.850048 23.706623
vt 0.375000 0.000000
vt 0.625000 0.000000
vt 0.375000 0.250000
vt 0.625000 0.250000
vt 0.375000 0.500000
vt 0.625000 0.500000
vt 0.375000 0.750000
vt 0.625000 0.750000
vt 0.375000 1.000000
vt 0.625000 1.000000
vt 0.875000 0.000000
vt 0.875000 0.250000
vt 0.125000 0.000000
vt 0.125000 0.250000
vn 0.000000 0.092280 0.995733
vn 0.000000 0.092280 0.995733
vn 0.000000 0.092280 0.995733
vn 0.000000 0.092280 0.995733
vn 0.000000 0.995733 -0.092280
vn 0.000000 0.995733 -0.092280
vn 0.000000 0.995733 -0.092280
vn 0.000000 0.995733 -0.092280
vn 0.000000 -0.092280 -0.995733
vn 0.000000 -0.092280 -0.995733
vn 0.000000 -0.092280 -0.995733
vn 0.000000 -0.092280 -0.995733
vn 0.000000 -0.995733 0.092280
vn 0.000000 -0.995733 0.092280
vn 0.000000 -0.995733 0.092280
vn 0.000000 -0.995733 0.092280
vn 1.000000 -0.000000 0.000000
vn 1.000000 -0.000000 0.000000
vn 1.000000 -0.000000 0.000000
vn 1.000000 -0.000000 0.000000
vn -1.000000 0.000000 0.000000
vn -1.000000 0.000000 0.000000
vn -1.000000 0.000000 0.000000
vn -1.000000 0.000000 0.000000
s off
g puente_escalones escalon2
usemtl initialShadingGroup
f 17/29/49 18/30/50 20/32/51 19/31/52
f 19/31/53 20/32/54 22/34/55 21/33/56
f 21/33/57 22/34/58 24/36/59 23/35/60
f 23/35/61 24/36/62 18/38/63 17/37/64
f 18/30/65 24/39/66 22/40/67 20/32/68
f 23/41/69 17/29/70 19/31/71 21/42/72
g default
v -6.237000 9.717952 31.719517
v 6.237000 9.717952 31.719517
v -6.237000 10.712479 31.615038
v 6.237000 10.712479 31.615038
v -6.237000 10.341372 28.082478
v 6.237000 10.341372 28.082478
v -6.237000 9.346846 28.186956
v 6.237000 9.346846 28.186956
vt 0.375000 0.000000
vt 0.625000 0.000000
vt 0.375000 0.250000
vt 0.625000 0.250000
vt 0.375000 0.500000
vt 0.625000 0.500000
vt 0.375000 0.750000
vt 0.625000 0.750000
vt 0.375000 1.000000
vt 0.625000 1.000000
vt 0.875000 0.000000
vt 0.875000 0.250000
vt 0.125000 0.000000
vt 0.125000 0.250000
vn 0.000000 0.104479 0.994527
vn 0.000000 0.104479 0.994527
vn 0.000000 0.104479 0.994527
vn 0.000000 0.104479 0.994527
vn 0.000000 0.994527 -0.104478
vn 0.000000 0.994527 -0.104478
vn 0.000000 0.994527 -0.104478
vn 0.000000 0.994527 -0.104478
vn 0.000000 -0.104479 -0.994527
vn 0.000000 -0.104479 -0.994527
vn 0.000000 -0.104479 -0.994527
vn 0.000000 -0.104479 -0.994527
vn 0.000000 -0.994527 0.104478
vn 0.000000 -0.994527 0.104478
vn 0.000000 -0.994527 0.104478
vn 0.000000 -0.994527 0.104478
vn 1.000000 -0.000000 0.000000
vn 1.000000 -0.000000 0.000000
vn 1.000000 -0.000000 0.000000
vn 1.000000 -0.000000 0.000000
vn -1.000000 0.000000 0.000000
vn -1.000000 0.000000 0.000000
vn -1.000000 0.000000 0.000000
vn -1.000000 0.000000 0.000000
s off
g puente_escalones escalon3
usemtl initialShadingGroup
f 25/43/73 26/44/74 28/46/75 27/45/76
f 27/45/77 28/46/78 30/48/79 29/47/80
f 29/47/81 30/48/82 32/50/83 31/49/84
f 31/49/85 32/50/86 26/52/87 25/51/88
f 26/44/89 32/53/90 30/54/91 28/46/92
f 31/55/93 25/43/94 27/45/95 29/56/96
g default
v -6.237000 10.368275 36.152069
v 6.237000 10.368275 36.152069
v -6.237000 11.364651 36.067013
v 6.237000 11.364651 36.067013
v -6.237000 11.062537 32.527885
v 6.237000 11.062537 32.527885
v -6.237000 10.066160 32.612938
v 6.237000 10.066160 32.612938
vt 0.375000 0.000000
vt 0.625000 0.000000
vt 0.375000 0.250000
vt 0.625000 0.250000
vt 0.375000 0.500000
vt 0.625000 0.500000
vt 0.375000 0.750000
vt 0.625000 0.750000
vt 0.375000 1.000000
vt 0.625000 1.000000
vt 0.875000 0.000000
vt 0.875000 0.250000
vt 0.125000 0.000000
vt 0.125000 0.250000
vn 0.000000 0.085056 0.996376
vn 0.000000 0.085056 0.996376
vn 0.000000 0.085056 0.996376
vn 0.000000 0.085056 0.996376
vn 0.000000 0.996376 -0.085054
vn 0.000000 0.996376 -0.085054
vn 0.000000 0.996376 -0.085054
vn 0.000000 0.996376 -0.085054
vn 0.000000 -0.085052 -0.996377
vn 0.000000 -0.085052 -0.996377
vn 0.000000 -0.085052 -0.996377
vn 0.000000 -0.085052 -0.996377
vn 0.000000 -0.996376 0.085055
vn 0.000000 -0.996376 0.085055
vn 0.000000 -0.996376 0.085055
vn 0.000000 -0.996376 0.085055
vn 1.000000 -0.000000 0.000000
vn 1.000000 -0.000000 0.000000
vn 1.000000 -0.000000 0.000000
vn 1.000000 -0.000000 0.000000
vn -1.000000 -0.000000 0.000000
vn -1.000000 -0.000000 0.000000
vn -1.000000 -0.000000 0.000000
vn -1.000000 -0.000000 0.000000
s off
g puente_escalones escalon4
usemtl initialShadingGroup
f 33/57/97 34/58/98 36/60/99 35/59/100
f 35/59/101 36/60/102 38/62/103 37/61/104
f 37/61/105 38/62/106 40/64/107 39/63/108
f 39/63/109 40/64/110 34/66/111 33/65/112
f 34/58/113 40/67/114 38/68/115 36/60/116
f 39/69/117 33/57/118 35/59/119 37/70/120
g default
v -6.237000 10.983930 40.658073
v 6.237000 10.983930 40.658073
v -6.237000 11.980694 40.577686
v 6.237000 11.980694 40.577686
v -6.237000 11.695154 37.037182
v 6.237000 11.695154 37.037182
v -6.237000 10.698390 37.117569
v 6.237000 10.698390 37.117569
vt 0.375000 0.000000
vt 0.625000 0.000000
vt 0.375000 0.250000
vt 0.625000 0.250000
vt 0.375000 0.500000
vt 0.625000 0.500000
vt 0.375000 0.750000
vt 0.625000 0.750000
vt 0.375000 1.000000
vt 0.625000 1.000000
vt 0.875000 0.000000
vt 0.875000 0.250000
vt 0.125000 0.000000
vt 0.125000 0.250000
vn 0.000000 0.080387 0.996764
vn 0.000000 0.080387 0.996764
vn 0.000000 0.080387 0.996764
vn 0.000000 0.080387 0.996764
vn 0.000000 0.996764 -0.080388
vn 0.000000 0.996764 -0.080388
vn 0.000000 0.996764 -0.080388
vn 0.000000 0.996764 -0.080388
vn 0.000000 -0.080387 -0.996764
vn 0.000000 -0.080387 -0.996764
vn 0.000000 -0.080387 -0.996764
vn 0.000000 -0.080387 -0.996764
vn 0.000000 -0.996764 0.080388
vn 0.000000 -0.996764 0.080388
vn 0.000000 -0.996764 0.080388
vn 0.000000 -0.996764 0.080388
vn 1.000000 0.000000 0.000000
vn 1.000000 0.000000 0.000000
vn 1.000000 0.000000 0.000000
vn 1.000000 0.000000 0.000000
vn -1.000000 -0.000000 0.000000
vn -1.000000 -0.000000 0.000000
vn -1.000000 -0.000000 0.000000
vn -1.000000 -0.000000 0.000000
s off
g puente_escalones escalon5
usemtl initialShadingGroup
f 41/71/121 42/72/122 44/74/123 43/73/124
f 43/73/125 44/74/126 46/76/127 45/75/128
f 45/75/129 46/76/130 48/78/131 47/77/132
f 47/77/133 48/78/134 42/80/135 41/79/136
f 42/72/137 48/81/138 46/82/139 44/74/140
f 47/83/141 41/71/142 43/73/143 45/84/144
g default
v -6.237000 11.563782 45.214054
v 6.237000 11.563782 45.214054
v -6.237000 12.560546 45.133667
v 6.237000 12.560546 45.133667
v -6.237000 12.275006 41.593163
v 6.237000 12.275006 41.593163
v -6.237000 11.278242 41.673550
v 6.237000 11.278242 41.673550
vt 0.375000 0.000000
vt 0.625000 0.000000
vt 0.375000 0.250000
vt 0.625000 0.250000
vt 0.375000 0.500000
vt 0.625000 0.500000
vt 0.375000 0.750000
vt 0.625000 0.750000
vt 0.375000 1.000000
vt 0.625000 1.000000
vt 0.875000 0.000000
vt 0.875000 0.250000
vt 0.125000 0.000000
vt 0.125000 0.250000
vn 0.000000 0.080387 0.996764
vn 0.000000 0.080387 0.996764
vn 0.000000 0.080387 0.996764
vn 0.000000 0.080387 0.996764
vn 0.000000 0.996764 -0.080389
vn 0.000000 0.996764 -0.080389
vn 0.000000 0.996764 -0.080389
vn 0.000000 0.996764 -0.080389
vn 0.000000 -0.080387 -0.996764
vn 0.000000 -0.080387 -0.996764
vn 0.000000 -0.080387 -0.996764
vn 0.000000 -0.080387 -0.996764
vn 0.000000 -0.996764 0.080388
vn 0.000000 -0.996764 0.080388
vn 0.000000 -0.996764 0.080388
vn 0.000000 -0.996764 0.080388
vn 1.000000 0.000000 0.000000
vn 1.000000 0.000000 0.000000
vn 1.000000 0.000000 0.000000
vn 1.000000 0.000000 0.000000
vn -1.000000 -0.000000 0.000000
vn -1.000000 -0.000000 0.000000
vn -1.000000 -0.000000 0.000000
vn -1.000000 -0.000000 0.000000
s off
g puente_escalones escalon6
usemtl initialShadingGroup
f 49/85/145 50/86/146 52/88/147 51/87/148
f 51/87/149 52/88/150 54/90/151 53/89/152
f 53/89/153 54/90/154 56/92/155 55/91/156
f 55/91/157 56/92/158 50/94/159 49/93/160
f 50/86/161 56/95/162 54/96/163 52/88/164
f 55/97/165 49/85/166 51/87/167 53/98/168
g default
v -6.237000 12.141594 49.643948
v 6.237000 12.141594 49.643948
v -6.237000 13.138357 49.563557
v 6.237000 13.138357 49.563557
v -6.237000 12.852818 46.023052
v 6.237000 12.852818 46.023052
v -6.237000 11.856054 46.103443
v 6.237000 11.856054 46.103443
vt 0.375000 0.000000
vt 0.625000 0.000000
vt 0.375000 0.250000
vt 0.625000 0.250000
vt 0.375000 0.500000
vt 0.625000 0.500000
vt 0.375000 0.750000
vt 0.625000 0.750000
vt 0.375000 1.000000
vt 0.625000 1.000000
vt 0.875000 0.000000
vt 0.875000 0.250000
vt 0.125000 0.000000
vt 0.125000 0.250000
vn 0.000000 0.080391 0.996763
vn 0.000000 0.080391 0.996763
vn 0.000000 0.080391 0.996763
vn 0.000000 0.080391 0.996763
vn 0.000000 0.996764 -0.080388
vn 0.000000 0.996764 -0.080388
vn 0.000000 0.996764 -0.080388
vn 0.000000 0.996764 -0.080388
vn 0.000000 -0.080391 -0.996763
vn 0.000000 -0.080391 -0.996763
vn 0.000000 -0.080391 -0.996763
vn 0.000000 -0.080391 -0.996763
vn 0.000000 -0.996764 0.080388
vn 0.000000 -0.996764 0.080388
vn 0.000000 -0.996764 0.080388
vn 0.000000 -0.996764 0.080388
vn 1.000000 -0.000000 0.000000
vn 1.000000 -0.000000 0.000000
vn 1.000000 -0.000000 0.000000
vn 1.000000 -0.000000 0.000000
vn -1.000000 0.000000 0.000000
vn -1.000000 0.000000 0.000000
vn -1.000000 0.000000 0.000000
vn -1.000000 0.000000 0.000000
s off
g puente_escalones escalon7
usemtl initialShadingGroup
f 57/99/169 58/100/170 60/102/171 59/101/172
f 59/101/173 60/102/174 62/104/175 61/103/176
f 61/103/177 62/104/178 64/106/179 63/105/180
f 63/105/181 64/106/182 58/108/183 57/107/184
f 58/100/185 64/109/186 62/110/187 60/102/188
f 63/111/189 57/99/190 59/101/191 61/112/192
g default
v -6.237000 13.081724 64.411758
v 6.237000 13.081724 64.411758
v -6.237000 14.080956 64.450958
v 6.237000 14.080956 64.450958
v -6.237000 14.220194 60.901691
v 6.237000 14.220194 60.901691
v -6.237000 13.220962 60.862492
v 6.237000 13.220962 60.862492
vt 0.375000 0.000000
vt 0.625000 0.000000
vt 0.375000 0.250000
vt 0.625000 0.250000
vt 0.375000 0.500000
vt 0.625000 0.500000
vt 0.375000 0.750000
vt 0.625000 0.750000
vt 0.375000 1.000000
vt 0.625000 1.000000
vt 0.875000 0.000000
vt 0.875000 0.250000
vt 0.125000 0.000000
vt 0.125000 0.250000
vn 0.000000 -0.039200 0.999231
vn 0.000000 -0.039200 0.999231
vn 0.000000 -0.039200 0.999231
vn 0.000000 -0.039200 0.999231
vn 0.000000 0.999231 0.039200
vn 0.000000 0.999231 0.039200
vn 0.000000 0.999231 0.039200
vn 0.000000 0.999231 0.039200
vn 0.000000 0.039200 -0.999231
vn 0.000000 0.039200 -0.999231
vn 0.000000 0.039200 -0.999231
vn 0.000000 0.039200 -0.999231
vn 0.000000 -0.999231 -0.039200
vn 0.000000 -0.999231 -0.039200
vn 0.000000 -0.999231 -0.039200
vn 0.000000 -0.999231 -0.039200
vn 1.000000 -0.000000 0.000000
vn 1.000000 -0.000000 0.000000
vn 1.000000 -0.000000 0.000000
vn 1.000000 -0.000000 0.000000
vn -1.000000 0.000000 0.000000
vn -1.000000 0.000000 0.000000
vn -1.000000 0.000000 0.000000
vn -1.000000 0.000000 0.000000
s off
g puente_escalones escalon8
usemtl initialShadingGroup
f 65/113/193 66/114/194 68/116/195 67/115/196
f 67/115/197 68/116/198 70/118/199 69/117/200
f 69/117/201 70/118/202 72/120/203 71/119/204
f 71/119/205 72/120/206 66/122/207 65/121/208
f 66/114/209 72/123/210 70/124/211 68/116/212
f 71/125/213 65/113/214 67/115/215 69/126/216
g default
v -6.237000 12.530269 69.259666
v 6.237000 12.530269 69.259666
v -6.237000 13.523623 69.374763
v 6.237000 13.523623 69.374763
v -6.237000 13.932451 65.846367
v 6.237000 13.932451 65.846367
v -6.237000 12.939096 65.731270
v 6.237000 12.939096 65.731270
vt 0.375000 0.000000
vt 0.625000 0.000000
vt 0.375000 0.250000
vt 0.625000 0.250000
vt 0.375000 0.500000
vt 0.625000 0.500000
vt 0.375000 0.750000
vt 0.625000 0.750000
vt 0.375000 1.000000
vt 0.625000 1.000000
vt 0.875000 0.000000
vt 0.875000 0.250000
vt 0.125000 0.000000
vt 0.125000 0.250000
vn 0.000000 -0.115097 0.993354
vn 0.000000 -0.115097 0.993354
vn 0.000000 -0.115097 0.993354
vn 0.000000 -0.115097 0.993354
vn 0.000000 0.993354 0.115098
vn 0.000000 0.993354 0.115098
vn 0.000000 0.993354 0.115098
vn 0.000000 0.993354 0.115098
vn 0.000000 0.115097 -0.993354
vn 0.000000 0.115097 -0.993354
vn 0.000000 0.115097 -0.993354
vn 0.000000 0.115097 -0.993354
vn 0.000000 -0.993354 -0.115098
vn 0.000000 -0.993354 -0.115098
vn 0.000000 -0.993354 -0.115098
vn 0.000000 -0.993354 -0.115098
vn 1.000000 -0.000000 0.000000
vn 1.000000 -0.000000 0.000000
vn 1.000000 -0.000000 0.000000
vn 1.000000 -0.000000 0.000000
vn -1.000000 0.000000 0.000000
vn -1.000000 0.000000 0.000000
vn -1.000000 0.000000 0.000000
vn -1.000000 0.000000 0.000000
s off
g puente_escalones escalon9
usemtl initialShadingGroup
f 73/127/217 74/128/218 76/130/219 75/129/220
f 75/129/221 76/130/222 78/132/223 77/131/224
f 77/131/225 78/132/226 80/134/227 79/133/228
f 79/133/229 80/134/230 74/136/231 73/135/232
f 74/128/233 80/137/234 78/138/235 76/130/236
f 79/139/237 73/127/238 75/129/239 77/140/240
g default
v -6.237000 11.759753 74.055008
v 6.237000 11.759753 74.055008
v -6.237000 12.747386 74.211800
v 6.237000 12.747386 74.211800
v -6.237000 13.304301 70.703728
v 6.237000 13.304301 70.703728
v -6.237000 12.316669 70.546944
v 6.237000 12.316669 70.546944
vt 0.375000 0.000000
vt 0.625000 0.000000
vt 0.375000 0.250000
vt 0.625000 0.250000
vt 0.375000 0.500000
vt 0.625000 0.500000
vt 0.375000 0.750000
vt 0.625000 0.750000
vt 0.375000 1.000000
vt 0.625000 1.000000
vt 0.875000 0.000000
vt 0.875000 0.250000
vt 0.125000 0.000000
vt 0.125000 0.250000
vn 0.000000 -0.156792 0.987632
vn 0.000000 -0.156792 0.987632
vn 0.000000 -0.156792 0.987632
vn 0.000000 -0.156792 0.987632
vn 0.000000 0.987632 0.156789
vn 0.000000 0.987632 0.156789
vn 0.000000 0.987632 0.156789
vn 0.000000 0.987632 0.156789
vn 0.000000 0.156784 -0.987633
vn 0.000000 0.156784 -0.987633
vn 0.000000 0.156784 -0.987633
vn 0.000000 0.156784 -0.987633
vn 0.000000 -0.987632 -0.156790
vn 0.000000 -0.987632 -0.156790
vn 0.000000 -0.987632 -0.156790
vn 0.000000 -0.987632 -0.156790
vn 1.000000 0.000000 0.000000
vn 1.000000 0.000000 0.000000
vn 1.000000 0.000000 0.000000
vn 1.000000 0.000000 0.000000
vn -1.000000 -0.000000 0.000000
vn -1.000000 -0.000000 0.000000
vn -1.000000 -0.000000 0.000000
vn -1.000000 -0.000000 0.000000
s off
g puente_escalones escalon10
usemtl initialShadingGroup
f 81/141/241 82/142/242 84/144/243 83/143/244
f 83/143/245 84/144/246 86/146/247 85/145/248
f 85/145/249 86/146/250 88/148/251 87/147/252
f 87/147/253 88/148/254 82/150/255 81/149/256
f 82/142/257 88/151/258 86/152/259 84/144/260
f 87/153/261 81/141/262 83/143/263 85/154/264
g default
v -6.237000 12.646981 54.631458
v 6.237000 12.646981 54.631458
v -6.237000 13.643745 54.551067
v 6.237000 13.643745 54.551067
v -6.237000 13.358206 51.010563
v 6.237000 13.358206 51.010563
v -6.237000 12.361443 51.090954
v 6.237000 12.361443 51.090954
vt 0.375000 0.000000
vt 0.625000 0.000000
vt 0.375000 0.250000
vt 0.625000 0.250000
vt 0.375000 0.500000
vt 0.625000 0.500000
vt 0.375000 0.750000
vt 0.625000 0.750000
vt 0.375000 1.000000
vt 0.625000 1.000000
vt 0.875000 0.000000
vt 0.875000 0.250000
vt 0.125000 0.000000
vt 0.125000 0.250000
vn 0.000000 0.080391 0.996763
vn 0.000000 0.080391 0.996763
vn 0.000000 0.080391 0.996763
vn 0.000000 0.080391 0.996763
vn 0.000000 0.996764 -0.080388
vn 0.000000 0.996764 -0.080388
vn 0.000000 0.996764 -0.080388
vn 0.000000 0.996764 -0.080388
vn 0.000000 -0.080391 -0.996763
vn 0.000000 -0.080391 -0.996763
vn 0.000000 -0.080391 -0.996763
vn 0.000000 -0.080391 -0.996763
vn 0.000000 -0.996764 0.080388
vn 0.000000 -0.996764 0.080388
vn 0.000000 -0.996764 0.080388
vn 0.000000 -0.996764 0.080388
vn 1.000000 -0.000000 0.000000
vn 1.000000 -0.000000 0.000000
vn 1.000000 -0.000000 0.000000
vn 1.000000 -0.000000 0.000000
vn -1.000000 0.000000 0.000000
vn -1.000000 0.000000 0.000000
vn -1.000000 0.000000 0.000000
vn -1.000000 0.000000 0.000000
s off
g puente_escalones escalon11
usemtl initialShadingGroup
f 89/155/265 90/156/266 92/158/267 91/157/268
f 91/157/269 92/158/270 94/160/271 93/159/272
f 93/159/273 94/160/274 96/162/275 95/161/276
f 95/161/277 96/162/278 90/164/279 89/163/280
f 90/156/281 96/165/282 94/166/283 92/158/284
f 95/167/285 89/155/286 91/157/287 93/168/288
g default
v -6.237000 13.080171 59.552601
v 6.237000 13.080171 59.552601
v -6.237000 14.076935 59.472214
v 6.237000 14.076935 59.472214
v -6.237000 13.791395 55.931709
v 6.237000 13.791395 55.931709
v -6.237000 12.794632 56.012096
v 6.237000 12.794632 56.012096
vt 0.375000 0.000000
vt 0.625000 0.000000
vt 0.375000 0.250000
vt 0.625000 0.250000
vt 0.375000 0.500000
vt 0.625000 0.500000
vt 0.375000 0.750000
vt 0.625000 0.750000
vt 0.375000 1.000000
vt 0.625000 1.000000
vt 0.875000 0.000000
vt 0.875000 0.250000
vt 0.125000 0.000000
vt 0.125000 0.250000
vn 0.000000 0.080387 0.996764
vn 0.000000 0.080387 0.996764
vn 0.000000 0.080387 0.996764
vn 0.000000 0.080387 0.996764
vn 0.000000 0.996764 -0.080389
vn 0.000000 0.996764 -0.080389
vn 0.000000 0.996764 -0.080389
vn 0.000000 0.996764 -0.080389
vn 0.000000 -0.080387 -0.996764
vn 0.000000 -0.080387 -0.996764
vn 0.000000 -0.080387 -0.996764
vn 0.000000 -0.080387 -0.996764
vn 0.000000 -0.996764 0.080388
vn 0.000000 -0.996764 0.080388
vn 0.000000 -0.996764 0.080388
vn 0.000000 -0.996764 0.080388
vn 1.000000 0.000000 0.000000
vn 1.000000 0.000000 0.000000
vn 1.000000 0.000000 0.000000
vn 1.000000 0.000000 0.000000
vn -1.000000 -0.000000 0.000000
vn -1.000000 -0.000000 0.000000
vn -1.000000 -0.000000 0.000000
vn -1.000000 -0.000000 0.000000
s off
g puente_escalones escalon12
usemtl initialShadingGroup
f 97/169/289 98/170/290 100/172/291 99/171/292
f 99/171/293 100/172/294 102/174/295 101/173/296
f 101/173/297 102/174/298 104/176/299 103/175/300
f 103/175/301 104/176/302 98/178/303 97/177/304
f 98/170/305 104/179/306 102/180/307 100/172/308
f 103/181/309 97/169/310 99/171/311 101/182/312
