# This file uses centimeters as units for non-parametric coordinates.

mtllib MOD_BARANDAL_01.mtl
g default
v 5.522578 11.753746 18.358910
v 6.351754 11.753746 18.358910
v 5.522578 12.271426 18.358910
v 6.351754 12.271426 18.358910
v 5.522578 12.177695 14.254477
v 6.351754 12.177695 14.254477
v 5.522578 11.660015 14.254477
v 6.351754 11.660015 14.254477
v 5.522578 12.429878 24.696712
v 6.351754 12.429878 24.696712
v 6.351754 12.947558 24.696712
v 5.522578 12.947558 24.696712
v 5.522578 13.302637 31.959917
v 6.351754 13.302637 31.959917
v 6.351754 13.820317 31.959917
v 5.522578 13.820317 31.959917
v 5.522578 14.672601 42.730991
v 6.351754 14.672601 42.730991
v 6.351754 15.190283 42.730991
v 5.522578 15.190283 42.730991
v 5.522578 15.677476 52.565617
v 6.351754 15.677476 52.565617
v 6.351754 16.195154 52.565617
v 5.522578 16.195154 52.565617
v 5.522578 16.532482 64.034706
v 6.351754 16.532482 64.034706
v 6.351754 16.893812 64.034706
v 5.522578 16.893812 64.034706
v 5.522578 15.616935 71.967995
v 6.351754 15.616935 71.967995
v 6.351754 16.134617 71.967995
v 5.522578 16.134617 71.967995
v 5.522578 14.880086 75.109627
v 6.351754 14.880086 75.109627
v 6.351754 15.397767 75.109627
v 5.522578 15.397767 75.109627
v 5.522578 16.759151 58.500488
v 6.351754 16.759151 58.500488
v 6.351754 16.322378 58.500488
v 5.522578 16.322378 58.500488
vt 0.375000 0.000000
vt 0.625000 0.000000
vt 0.375000 0.250000
vt 0.625000 0.250000
vt 0.375000 0.500000
vt 0.625000 0.500000
vt 0.375000 0.750000
vt 0.625000 0.750000
vt 0.375000 1.000000
vt 0.625000 1.000000
vt 0.875000 0.000000
vt 0.875000 0.250000
vt 0.125000 0.000000
vt 0.125000 0.250000
vt 0.375000 0.000000
vt 0.625000 0.000000
vt 0.625000 0.250000
vt 0.375000 0.250000
vt 0.375000 0.000000
vt 0.625000 0.000000
vt 0.625000 0.250000
vt 0.375000 0.250000
vt 0.375000 0.000000
vt 0.625000 0.000000
vt 0.625000 0.250000
vt 0.375000 0.250000
vt 0.375000 0.000000
vt 0.625000 0.000000
vt 0.625000 0.250000
vt 0.375000 0.250000
vt 0.375000 0.000000
vt 0.625000 0.000000
vt 0.625000 0.250000
vt 0.375000 0.250000
vt 0.375000 0.000000
vt 0.625000 0.000000
vt 0.625000 0.250000
vt 0.375000 0.250000
vt 0.375000 0.000000
vt 0.625000 0.000000
vt 0.625000 0.250000
vt 0.375000 0.250000
vt 0.375000 0.250000
vt 0.625000 0.250000
vt 0.625000 0.000000
vt 0.375000 0.000000
vn 0.000000 0.000000 1.000000
vn 0.000000 0.000000 1.000000
vn 0.000000 0.000000 1.000000
vn 0.000000 0.000000 1.000000
vn 0.000000 0.997293 -0.073526
vn 0.000000 0.997293 -0.073526
vn 0.000000 0.999739 -0.022831
vn 0.000000 0.999739 -0.022831
vn 0.000000 0.000000 -1.000000
vn 0.000000 0.000000 -1.000000
vn 0.000000 0.000000 -1.000000
vn 0.000000 0.000000 -1.000000
vn 0.000000 -0.999739 0.022831
vn 0.000000 -0.999739 0.022831
vn 0.000000 -0.997293 0.073526
vn 0.000000 -0.997293 0.073526
vn 1.000000 0.000000 0.000000
vn 1.000000 0.000000 0.000000
vn 1.000000 0.000000 0.000000
vn 1.000000 0.000000 0.000000
vn -1.000000 0.000000 0.000000
vn -1.000000 0.000000 0.000000
vn -1.000000 0.000000 0.000000
vn -1.000000 0.000000 0.000000
vn 0.000000 -0.993578 0.113149
vn 0.000000 -0.993578 0.113149
vn 1.000000 0.000000 0.000000
vn 1.000000 0.000000 0.000000
vn 0.000000 0.993578 -0.113149
vn 0.000000 0.993578 -0.113149
vn -1.000000 0.000000 0.000000
vn -1.000000 0.000000 0.000000
vn 0.000000 -0.992356 0.123408
vn 0.000000 -0.992356 0.123408
vn 1.000000 0.000000 0.000000
vn 1.000000 0.000000 0.000000
vn 0.000000 0.992356 -0.123408
vn 0.000000 0.992356 -0.123408
vn -1.000000 0.000000 0.000000
vn -1.000000 0.000000 0.000000
vn 0.000000 -0.993424 0.114494
vn 0.000000 -0.993424 0.114494
vn 1.000000 0.000000 0.000000
vn 1.000000 0.000000 0.000000
vn 0.000000 0.993424 -0.114494
vn 0.000000 0.993424 -0.114494
vn -1.000000 0.000000 0.000000
vn -1.000000 0.000000 0.000000
vn 0.000000 -0.994572 0.104050
vn 0.000000 -0.994572 0.104050
vn 1.000000 0.000000 0.000000
vn 1.000000 0.000000 0.000000
vn 0.000000 0.995088 -0.098999
vn 0.000000 0.995088 -0.098999
vn -1.000000 0.000000 0.000000
vn -1.000000 0.000000 0.000000
vn 0.000000 -0.997233 0.074343
vn 0.000000 -0.997233 0.074343
vn 1.000000 0.000000 0.000000
vn 1.000000 0.000000 0.000000
vn 0.000000 0.998150 -0.060804
vn 0.000000 0.998150 -0.060804
vn -1.000000 0.000000 0.000000
vn -1.000000 0.000000 0.000000
vn 0.000000 -0.998631 -0.052309
vn 0.000000 -0.998631 -0.052309
vn 0.000000 -0.989052 -0.147568
vn 0.000000 -0.989052 -0.147568
vn 1.000000 0.000000 0.000000
vn 1.000000 0.000000 0.000000
vn 1.000000 0.000000 0.000000
vn 1.000000 0.000000 0.000000
vn 0.000000 0.998927 0.046324
vn 0.000000 0.998927 0.046324
vn 0.000000 0.990999 0.133868
vn 0.000000 0.990999 0.133868
vn -1.000000 0.000000 0.000000
vn -1.000000 0.000000 0.000000
vn -1.000000 0.000000 0.000000
vn -1.000000 0.000000 0.000000
vn 0.000000 -0.973580 -0.228347
vn 0.000000 -0.973580 -0.228347
vn 1.000000 0.000000 0.000000
vn 1.000000 0.000000 0.000000
vn 0.000000 0.973580 0.228347
vn 0.000000 0.973580 0.228347
vn -1.000000 0.000000 0.000000
vn -1.000000 0.000000 0.000000
s off
g junta_escalones3 puente_mano
usemtl initialShadingGroup
f 33/39/1 34/40/2 35/41/3 36/42/4
s 1
f 3/3/5 4/4/6 6/6/7 5/5/8
s off
f 5/5/9 6/6/10 8/8/11 7/7/12
s 2
f 7/7/13 8/8/14 2/10/15 1/9/16
s 3
f 2/2/17 8/11/18 6/12/19 4/4/20
s 4
f 7/13/21 1/1/22 3/3/23 5/14/24
s 2
f 1/1/16 2/2/15 10/16/25 9/15/26
s 3
f 2/2/17 4/4/20 11/17/27 10/16/28
s 1
f 4/4/6 3/3/5 12/18/29 11/17/30
s 4
f 3/3/23 1/1/22 9/15/31 12/18/32
s 2
f 9/15/26 10/16/25 14/20/33 13/19/34
s 3
f 10/16/28 11/17/27 15/21/35 14/20/36
s 1
f 11/17/30 12/18/29 16/22/37 15/21/38
s 4
f 12/18/32 9/15/31 13/19/39 16/22/40
s 2
f 13/19/34 14/20/33 18/24/41 17/23/42
s 3
f 14/20/36 15/21/35 19/25/43 18/24/44
s 1
f 15/21/38 16/22/37 20/26/45 19/25/46
s 4
f 16/22/40 13/19/39 17/23/47 20/26/48
s 2
f 17/23/42 18/24/41 22/28/49 21/27/50
s 3
f 18/24/44 19/25/43 23/29/51 22/28/52
s 1
f 19/25/46 20/26/45 24/30/53 23/29/54
s 4
f 20/26/48 17/23/47 21/27/55 24/30/56
s 2
f 21/27/50 22/28/49 39/45/57 40/46/58
s 3
f 22/28/52 23/29/51 38/44/59 39/45/60
s 1
f 23/29/54 24/30/53 37/43/61 38/44/62
s 4
f 24/30/56 21/27/55 40/46/63 37/43/64
s 2
f 25/31/65 26/32/66 30/36/67 29/35/68
s 3
f 26/32/69 27/33/70 31/37/71 30/36/72
s 1
f 27/33/73 28/34/74 32/38/75 31/37/76
s 4
f 28/34/77 25/31/78 29/35/79 32/38/80
s 2
f 29/35/68 30/36/67 34/40/81 33/39/82
s 3
f 30/36/72 31/37/71 35/41/83 34/40/84
s 1
f 31/37/76 32/38/75 36/42/85 35/41/86
s 4
f 32/38/80 29/35/79 33/39/87 36/42/88
s 1
f 38/44/62 37/43/61 28/34/74 27/33/73
s 3
f 39/45/60 38/44/59 27/33/70 26/32/69
s 2
f 40/46/58 39/45/57 26/32/66 25/31/65
s 4
f 37/43/64 40/46/63 25/31/78 28/34/77
g default
v -6.561845 11.753746 17.651878
v -5.732669 11.753746 17.651878
v -6.561845 12.271426 17.651878
v -5.732669 12.271426 17.651878
v -6.561845 12.177695 13.547446
v -5.732669 12.177695 13.547446
v -6.561845 11.660015 13.547446
v -5.732669 11.660015 13.547446
v -6.561845 12.429878 23.989681
v -5.732669 12.429878 23.989681
v -5.732669 12.947558 23.989681
v -6.561845 12.947558 23.989681
v -6.561845 13.302637 31.252888
v -5.732669 13.302637 31.252888
v -5.732669 13.820317 31.252888
v -6.561845 13.820317 31.252888
v -6.561845 14.672601 42.023960
v -5.732669 14.672601 42.023960
v -5.732669 15.190283 42.023960
v -6.561845 15.190283 42.023960
v -6.561845 15.677476 51.858585
v -5.732669 15.677476 51.858585
v -5.732669 16.195154 51.858585
v -6.561845 16.195154 51.858585
v -6.561845 16.532482 63.327679
v -5.732669 16.532482 63.327679
v -5.732669 16.893812 63.327679
v -6.561845 16.893812 63.327679
v -6.561845 15.616935 71.260963
v -5.732669 15.616935 71.260963
v -5.732669 16.134615 71.260963
v -6.561845 16.134615 71.260963
v -6.561845 14.880086 74.402596
v -5.732669 14.880086 74.402596
v -5.732669 15.397767 74.402596
v -6.561845 15.397767 74.402596
v -6.561845 16.759150 57.793461
v -5.732669 16.759150 57.793461
v -5.732669 16.322376 57.793461
v -6.561845 16.322376 57.793461
vt 0.375000 0.000000
vt 0.625000 0.000000
vt 0.375000 0.250000
vt 0.625000 0.250000
vt 0.375000 0.500000
vt 0.625000 0.500000
vt 0.375000 0.750000
vt 0.625000 0.750000
vt 0.375000 1.000000
vt 0.625000 1.000000
vt 0.875000 0.000000
vt 0.875000 0.250000
vt 0.125000 0.000000
vt 0.125000 0.250000
vt 0.375000 0.000000
vt 0.625000 0.000000
vt 0.625000 0.250000
vt 0.375000 0.250000
vt 0.375000 0.000000
vt 0.625000 0.000000
vt 0.625000 0.250000
vt 0.375000 0.250000
vt 0.375000 0.000000
vt 0.625000 0.000000
vt 0.625000 0.250000
vt 0.375000 0.250000
vt 0.375000 0.000000
vt 0.625000 0.000000
vt 0.625000 0.250000
vt 0.375000 0.250000
vt 0.375000 0.000000
vt 0.625000 0.000000
vt 0.625000 0.250000
vt 0.375000 0.250000
vt 0.375000 0.000000
vt 0.625000 0.000000
vt 0.625000 0.250000
vt 0.375000 0.250000
vt 0.375000 0.000000
vt 0.625000 0.000000
vt 0.625000 0.250000
vt 0.375000 0.250000
vt 0.375000 0.250000
vt 0.625000 0.250000
vt 0.625000 0.000000
vt 0.375000 0.000000
vn 0.000000 0.000000 1.000000
vn 0.000000 0.000000 1.000000
vn 0.000000 0.000000 1.000000
vn 0.000000 0.000000 1.000000
vn 0.000000 0.997293 -0.073526
vn 0.000000 0.997293 -0.073526
vn 0.000000 0.999739 -0.022830
vn 0.000000 0.999739 -0.022830
vn 0.000000 0.000000 -1.000000
vn 0.000000 0.000000 -1.000000
vn 0.000000 0.000000 -1.000000
vn 0.000000 0.000000 -1.000000
vn 0.000000 -0.999739 0.022831
vn 0.000000 -0.999739 0.022831
vn 0.000000 -0.997293 0.073526
vn 0.000000 -0.997293 0.073526
vn 1.000000 0.000000 0.000000
vn 1.000000 0.000000 0.000000
vn 1.000000 0.000000 0.000000
vn 1.000000 0.000000 0.000000
vn -1.000000 0.000000 0.000000
vn -1.000000 0.000000 0.000000
vn -1.000000 0.000000 0.000000
vn -1.000000 0.000000 0.000000
vn 0.000000 -0.993578 0.113149
vn 0.000000 -0.993578 0.113149
vn 1.000000 0.000000 0.000000
vn 1.000000 0.000000 0.000000
vn 0.000000 0.993578 -0.113149
vn 0.000000 0.993578 -0.113149
vn -1.000000 0.000000 0.000000
vn -1.000000 0.000000 0.000000
vn 0.000000 -0.992356 0.123408
vn 0.000000 -0.992356 0.123408
vn 1.000000 0.000000 0.000000
vn 1.000000 0.000000 0.000000
vn 0.000000 0.992356 -0.123408
vn 0.000000 0.992356 -0.123408
vn -1.000000 0.000000 0.000000
vn -1.000000 0.000000 0.000000
vn 0.000000 -0.993424 0.114494
vn 0.000000 -0.993424 0.114494
vn 1.000000 0.000000 0.000000
vn 1.000000 0.000000 0.000000
vn 0.000000 0.993424 -0.114494
vn 0.000000 0.993424 -0.114494
vn -1.000000 0.000000 0.000000
vn -1.000000 0.000000 0.000000
vn 0.000000 -0.994572 0.104050
vn 0.000000 -0.994572 0.104050
vn 1.000000 0.000000 0.000000
vn 1.000000 0.000000 0.000000
vn 0.000000 0.995088 -0.098999
vn 0.000000 0.995088 -0.098999
vn -1.000000 0.000000 0.000000
vn -1.000000 0.000000 0.000000
vn 0.000000 -0.997233 0.074342
vn 0.000000 -0.997233 0.074342
vn 1.000000 0.000000 0.000000
vn 1.000000 0.000000 0.000000
vn 0.000000 0.998150 -0.060804
vn 0.000000 0.998150 -0.060804
vn -1.000000 0.000000 0.000000
vn -1.000000 0.000000 0.000000
vn 0.000000 -0.998631 -0.052309
vn 0.000000 -0.998631 -0.052309
vn 0.000000 -0.989052 -0.147568
vn 0.000000 -0.989052 -0.147568
vn 1.000000 0.000000 0.000000
vn 1.000000 0.000000 0.000000
vn 1.000000 0.000000 0.000000
vn 1.000000 0.000000 0.000000
vn 0.000000 0.998927 0.046324
vn 0.000000 0.998927 0.046324
vn 0.000000 0.990999 0.133868
vn 0.000000 0.990999 0.133868
vn -1.000000 0.000000 0.000000
vn -1.000000 0.000000 0.000000
vn -1.000000 0.000000 0.000000
vn -1.000000 0.000000 0.000000
vn 0.000000 -0.973580 -0.228347
vn 0.000000 -0.973580 -0.228347
vn 1.000000 0.000000 0.000000
vn 1.000000 0.000000 0.000000
vn 0.000000 0.973580 0.228346
vn 0.000000 0.973580 0.228346
vn -1.000000 0.000000 0.000000
vn -1.000000 0.000000 0.000000
s off
g puente_mano junta_escalones2
usemtl initialShadingGroup
f 73/85/89 74/86/90 75/87/91 76/88/92
s 1
f 43/49/93 44/50/94 46/52/95 45/51/96
s off
f 45/51/97 46/52/98 48/54/99 47/53/100
s 2
f 47/53/101 48/54/102 42/56/103 41/55/104
s 3
f 42/48/105 48/57/106 46/58/107 44/50/108
s 4
f 47/59/109 41/47/110 43/49/111 45/60/112
s 2
f 41/47/104 42/48/103 50/62/113 49/61/114
s 3
f 42/48/105 44/50/108 51/63/115 50/62/116
s 1
f 44/50/94 43/49/93 52/64/117 51/63/118
s 4
f 43/49/111 41/47/110 49/61/119 52/64/120
s 2
f 49/61/114 50/62/113 54/66/121 53/65/122
s 3
f 50/62/116 51/63/115 55/67/123 54/66/124
s 1
f 51/63/118 52/64/117 56/68/125 55/67/126
s 4
f 52/64/120 49/61/119 53/65/127 56/68/128
s 2
f 53/65/122 54/66/121 58/70/129 57/69/130
s 3
f 54/66/124 55/67/123 59/71/131 58/70/132
s 1
f 55/67/126 56/68/125 60/72/133 59/71/134
s 4
f 56/68/128 53/65/127 57/69/135 60/72/136
s 2
f 57/69/130 58/70/129 62/74/137 61/73/138
s 3
f 58/70/132 59/71/131 63/75/139 62/74/140
s 1
f 59/71/134 60/72/133 64/76/141 63/75/142
s 4
f 60/72/136 57/69/135 61/73/143 64/76/144
s 2
f 61/73/138 62/74/137 79/91/145 80/92/146
s 3
f 62/74/140 63/75/139 78/90/147 79/91/148
s 1
f 63/75/142 64/76/141 77/89/149 78/90/150
s 4
f 64/76/144 61/73/143 80/92/151 77/89/152
s 2
f 65/77/153 66/78/154 70/82/155 69/81/156
s 3
f 66/78/157 67/79/158 71/83/159 70/82/160
s 1
f 67/79/161 68/80/162 72/84/163 71/83/164
s 4
f 68/80/165 65/77/166 69/81/167 72/84/168
s 2
f 69/81/156 70/82/155 74/86/169 73/85/170
s 3
f 70/82/160 71/83/159 75/87/171 74/86/172
s 1
f 71/83/164 72/84/163 76/88/173 75/87/174
s 4
f 72/84/168 69/81/167 73/85/175 76/88/176
s 1
f 78/90/150 77/89/149 68/80/162 67/79/161
s 3
f 79/91/148 78/90/147 67/79/158 66/78/157
s 2
f 80/92/146 79/91/145 66/78/154 65/77/153
s 4
f 77/89/152 80/92/151 65/77/166 68/80/165
